<svg width="354" height="311" viewBox="0 0 354 311" fill="none" xmlns="http://www.w3.org/2000/svg">
    <path d="M240 29L238.769 28.6483C234.942 27.5548 230.981 27 227 27L210 29C201.694 30.9935 193.642 33.9288 186.002 37.7489L173.5 44L161.792 52.0347C152.622 58.3279 144.129 65.5551 136.45 73.6001C130.161 80.1882 124.444 87.2982 119.358 94.8537L115.793 100.15C111.609 106.367 108.075 112.998 105.248 119.937L102.749 126.07C99.9351 132.978 98.2627 140.296 97.7975 147.74C97.2703 156.174 98.3014 164.634 100.839 172.695L101.961 176.259C104.31 183.72 107.633 190.839 111.845 197.431L112.2 197.986C115.393 202.984 119.052 207.668 123.129 211.976L133.284 222.706C140.085 229.891 147.422 236.55 155.232 242.625C165.386 250.522 176.295 257.398 187.801 263.15L189.5 264L199.398 267.863C206.405 270.597 213.859 272 221.38 272C225.119 272 228.849 271.653 232.523 270.964L243 269C253.648 265.673 263.996 261.455 273.937 256.391L285.5 250.5L305 238.5L321.746 225.475C325.577 222.496 329.186 219.241 332.543 215.737L333.939 214.282C337.306 210.768 340.338 206.949 342.996 202.873L343.552 202.02C345.514 199.012 347.227 195.848 348.673 192.561L349.873 189.835C351.285 186.624 352.292 183.25 352.868 179.79C353.618 175.293 353.633 170.704 352.912 166.203L352.744 165.148C352.249 162.057 351.457 159.02 350.379 156.08L346.5 145.5L333.5 119L312 87L293.5 64.5L285.5 56L277.5 48C272.844 44.0094 267.812 40.4807 262.474 37.4635L259 35.5L250.5 32L240 29Z"
          fill="url(#paint0_linear_33_72)"/>
    <path d="M121.874 27.0379L151.222 30.1903L181.5 36.7426L185 37.4998L171.309 46.1412C161.125 52.5689 151.564 59.9332 142.749 68.1382L139.358 71.2941C134.128 76.1628 129.291 81.4385 124.895 87.0717C118.651 95.0709 113.329 103.748 109.027 112.938L104.5 122.609L102.816 127.9C99.3189 138.892 98.3899 150.541 100.101 161.949C101.358 170.329 104.019 178.437 107.971 185.933L110.136 190.039C114.36 198.05 119.625 205.468 125.793 212.099L136.5 223.609C147.485 233.595 159.202 242.743 171.554 250.978L181.5 257.609L192 263.218L200.376 267.801C200.458 267.846 200.532 267.904 200.596 267.973C201.113 268.535 200.691 269.443 199.927 269.409L166.138 267.926C165.27 267.888 164.408 267.774 163.56 267.584L154.806 265.632C147.609 264.027 140.581 261.743 133.815 258.812L122.249 253.801C113.17 249.868 104.404 245.251 96.0248 239.99C85.1305 233.149 74.9385 225.249 65.5974 216.405L64.2179 215.099L57.2026 207.119C52.2371 201.47 48.3689 194.945 45.7967 187.877C44.5181 184.364 43.568 180.74 42.9587 177.052L41.2214 166.535C40.7064 155.392 41.1305 144.225 42.4892 133.152L44.0698 120.271L48.6767 97.843L55.1886 77.6518C56.6781 73.0331 58.5022 68.529 60.6463 64.1753L61.5371 62.3664C63.687 58.0009 66.239 53.8451 69.1601 49.953L69.771 49.139C71.9269 46.2664 74.3141 43.5749 76.9085 41.0912L79.0598 39.0319C81.5936 36.6063 84.4202 34.5066 87.4742 32.7814C91.4435 30.5391 95.7503 28.9557 100.227 28.0929L101.275 27.8908C104.35 27.2982 107.474 27.0036 110.605 27.011L121.874 27.0379Z"
          fill="#FCF3FF"/>
    <g clip-path="url(#clip0_33_72)">
        <path d="M251.091 103.419C251.545 103.025 252.08 102.733 252.657 102.564C253.235 102.395 253.842 102.353 254.438 102.44C255.022 102.522 255.581 102.735 256.073 103.061C256.564 103.388 256.977 103.821 257.279 104.328C257.629 105.027 257.828 105.793 257.864 106.574C258.119 109.631 257.529 112.7 256.158 115.444C255.511 116.831 254.573 118.063 253.407 119.054C252.284 119.948 251.154 120.378 249.289 119.434C249.034 120.773 248.67 122.088 248.2 123.368C247.318 125.726 242.697 133.444 236.691 137.12C236.699 139.017 236.801 140.991 237.433 142.556C238.79 145.918 246.125 150.149 246.631 150.37C246.631 150.37 243.784 168.641 222.584 168.641C201.383 168.641 200.598 150.37 200.598 150.37C201.103 150.149 207.285 146.508 208.648 143.145C209.288 141.567 209.385 139.584 209.388 137.691C206.482 136.196 203.917 134.115 201.855 131.58C199.093 128.229 197.138 124.288 196.142 120.061C194.413 120.752 193.123 119.86 192.112 119.054C190.946 118.063 190.008 116.831 189.361 115.444C187.991 112.7 187.4 109.631 187.655 106.574C187.691 105.793 187.89 105.027 188.24 104.328C188.543 103.821 188.955 103.388 189.447 103.061C189.938 102.735 190.497 102.522 191.082 102.44C191.677 102.353 192.284 102.395 192.862 102.564C193.439 102.733 193.974 103.025 194.429 103.419C194.429 103.419 193.619 79.8892 223.086 79.8892C252.435 79.8892 251.091 103.419 251.091 103.419Z"
              fill="white"/>
        <path d="M194.379 103.248C195.286 104.18 195.79 102.27 196.133 101.523C196.679 100.334 197.478 98.5994 198.062 97.4302C198.384 96.7861 198.849 95.8432 199.134 95.186C199.435 94.4904 199.755 93.8046 200.093 93.1286C200.774 91.7683 201.528 90.446 202.352 89.1674C202.714 88.5261 203.207 87.9679 203.798 87.5289C205.571 86.365 208.007 87.3042 210.168 87.1416C212.57 86.9606 214.561 85.4094 216.777 84.5265C219.858 83.2989 224.583 82.9753 227.568 84.3923C229.079 84.4702 230.487 84.4039 231.856 84.3923C233.389 84.331 234.924 84.3995 236.445 84.597C240.849 85.6078 243.906 88.0377 246.121 91.72C247.596 94.1407 248.767 96.7333 249.61 99.4397C249.881 100.403 250.099 101.382 250.262 102.369C250.314 102.702 250.352 103.041 250.383 103.375C250.404 103.601 250.63 103.682 251.164 103.322L251.091 103.421C251.542 103.029 252.073 102.739 252.647 102.569C253.22 102.4 253.824 102.356 254.416 102.439C256.507 95.5717 255.942 86.8638 253.909 81.6735C252.511 78.1017 250.37 73.9796 246.032 71.5991L242.05 68.0736C240.261 64.4429 236.525 61.3342 231.616 59.5799C226.469 57.7419 211.466 57.4299 206.422 61.7899L201.244 65.3311C195.468 67.9673 191.393 74.2763 189.658 80.779C187.869 87.4789 187.853 97.1907 190.371 102.623C191.058 102.388 191.794 102.338 192.506 102.477C193.218 102.617 193.881 102.941 194.429 103.418"
              fill="#7A7473"/>
        <path d="M243.14 67.4359C240.503 62.1708 234.715 58.6164 229.018 57.6456C223.654 56.7301 218.169 56.7879 212.826 57.8161C210.237 58.3281 207.571 59.1621 205.529 60.898C205.294 61.1364 205.162 61.4578 205.162 61.7925C205.162 62.1273 205.294 62.4486 205.529 62.687C205.769 62.9176 206.089 63.0464 206.422 63.0464C206.755 63.0464 207.075 62.9176 207.315 62.687C207.334 62.6702 207.622 62.436 207.412 62.5986C207.504 62.5276 207.6 62.4602 207.696 62.3939C207.894 62.2566 208.099 62.1282 208.308 62.0067C208.673 61.7962 209.314 61.4842 209.525 61.3973C210.589 60.9704 211.687 60.6359 212.808 60.3976C215.308 59.8693 217.855 59.5948 220.41 59.5783C225.121 59.4899 229.724 59.7499 233.966 61.9783C236.887 63.5126 239.465 65.73 240.959 68.7135C241.688 70.1668 243.867 68.8892 243.14 67.4385V67.4359Z"
              fill="#211715"/>
        <path d="M248.171 117.957C248.104 119.114 247.888 120.257 247.528 121.359C247.403 121.776 247.265 122.19 247.125 122.603C247.077 122.746 247.029 122.89 246.979 123.032C246.946 123.127 246.789 123.473 246.953 123.109C246.445 124.212 245.862 125.279 245.207 126.302C243.296 129.435 240.889 132.236 238.078 134.597C236.527 135.914 234.724 136.903 232.779 137.504C231.219 137.949 231.884 140.387 233.45 139.939C237.482 138.787 240.839 135.887 243.536 132.776C245.757 130.315 247.615 127.549 249.054 124.562C250.018 122.486 250.576 120.244 250.695 117.958C250.748 116.332 248.222 116.334 248.17 117.958L248.171 117.957Z"
              fill="#211715"/>
        <path d="M194.404 117.992C195.909 126.052 200.21 133.792 207.421 138.064C209.343 139.222 211.47 140.001 213.685 140.357C214.008 140.436 214.348 140.388 214.637 140.224C214.926 140.06 215.141 139.792 215.239 139.475C215.326 139.152 215.282 138.808 215.117 138.518C214.951 138.227 214.679 138.013 214.357 137.922C206.663 136.753 200.775 129.782 198.284 122.781C197.66 121.001 197.177 119.176 196.84 117.321C196.748 116.999 196.534 116.727 196.243 116.562C195.952 116.397 195.609 116.353 195.286 116.439C194.967 116.534 194.697 116.748 194.532 117.038C194.368 117.327 194.322 117.669 194.404 117.992Z"
              fill="#211715"/>
        <path d="M251.983 104.312C252.563 103.838 253.305 103.608 254.051 103.67C254.797 103.733 255.49 104.083 255.983 104.647C256.551 105.367 256.605 106.396 256.642 107.274C256.694 108.29 256.641 109.309 256.485 110.314C256.17 112.34 255.454 114.284 254.38 116.031C253.571 117.318 252.231 119.058 250.524 118.588C248.954 118.156 248.285 120.592 249.852 121.023C254.245 122.234 257.124 117.042 258.271 113.6C258.963 111.526 259.264 109.341 259.161 107.157C259.055 105.045 258.492 103.035 256.569 101.886C255.573 101.313 254.422 101.066 253.279 101.181C252.135 101.296 251.057 101.766 250.194 102.526C249.96 102.765 249.829 103.085 249.829 103.419C249.829 103.753 249.96 104.074 250.194 104.312C250.434 104.543 250.754 104.672 251.087 104.672C251.42 104.672 251.74 104.543 251.98 104.312H251.983Z"
              fill="#211715"/>
        <path d="M195.322 102.526C194.535 101.835 193.567 101.382 192.532 101.221C191.497 101.061 190.438 101.2 189.479 101.621C187.46 102.515 186.613 104.376 186.405 106.471C185.984 110.733 187.263 115.498 190.048 118.793C191.539 120.557 193.689 121.973 196.073 121.419C197.656 121.05 196.986 118.615 195.402 118.983C193.743 119.369 192.129 117.528 191.314 116.306C190.179 114.56 189.417 112.599 189.073 110.546C188.901 109.543 188.832 108.526 188.866 107.509C188.892 106.626 188.913 105.562 189.429 104.805C189.661 104.497 189.953 104.238 190.288 104.045C190.622 103.852 190.993 103.729 191.376 103.683C191.759 103.638 192.148 103.67 192.519 103.778C192.89 103.886 193.235 104.069 193.533 104.314C193.774 104.543 194.094 104.671 194.426 104.671C194.758 104.671 195.078 104.543 195.319 104.314C195.553 104.076 195.684 103.755 195.684 103.421C195.684 103.087 195.553 102.766 195.319 102.528L195.322 102.526Z"
              fill="#211715"/>
        <path d="M200.607 64.2419C195.526 66.5998 191.95 71.3907 189.82 76.4437C187.628 81.6456 186.921 87.4699 187.166 93.0823C187.227 96.1173 187.761 99.1243 188.748 101.995C188.845 102.313 189.06 102.582 189.349 102.746C189.638 102.91 189.979 102.957 190.302 102.877C190.623 102.786 190.896 102.572 191.061 102.281C191.226 101.99 191.27 101.646 191.184 101.323C189.385 96.4993 189.365 90.9791 189.963 85.9272C190.562 80.8363 192.265 75.7849 195.431 71.6985C197.128 69.4492 199.34 67.64 201.881 66.423C202.168 66.2521 202.377 65.9751 202.462 65.6518C202.546 65.3285 202.5 64.9848 202.334 64.695C202.16 64.4115 201.883 64.2062 201.561 64.1218C201.239 64.0375 200.897 64.0805 200.607 64.2419Z"
              fill="#211715"/>
        <path d="M245.395 72.6872C248.885 74.6373 251.072 77.9828 252.537 81.6166C254.1 85.4973 254.573 89.7725 254.456 93.9294C254.399 96.5352 254.022 99.124 253.334 101.638C252.896 103.206 255.334 103.875 255.77 102.309C257.055 97.4858 257.346 92.4514 256.628 87.5115C256.117 83.3231 254.644 79.3096 252.325 75.7849C250.875 73.6108 248.939 71.8045 246.67 70.5093C245.249 69.7153 243.974 71.8964 245.395 72.6899V72.6872Z"
              fill="#211715"/>
        <path d="M227.145 83.7398C224.331 82.4258 221.16 82.0891 218.133 82.7832C216.648 83.1833 215.219 83.7666 213.878 84.5196C212.688 85.1316 211.426 85.8061 210.063 85.8877C208.634 85.9735 207.221 85.612 205.791 85.6862C205.047 85.6981 204.316 85.8748 203.648 86.2038C202.981 86.5327 202.395 87.0056 201.933 87.5883C199.977 90.0709 198.793 93.0607 197.418 95.8737C196.787 97.1686 196.293 98.5262 195.641 99.8111C195.343 100.398 194.99 100.947 194.73 101.553C194.62 101.808 194.512 102.063 194.378 102.307C194.388 102.289 194.243 102.518 194.245 102.518C194.069 102.176 195.274 102.356 195.272 102.355C194.08 101.252 192.289 103.035 193.489 104.141C194.58 105.148 195.909 104.761 196.593 103.521C196.8 103.145 196.932 102.731 197.124 102.351C197.474 101.653 197.886 100.994 198.209 100.28C199.389 97.668 200.482 95.006 201.855 92.4845C202.237 91.7829 202.64 91.0919 203.062 90.4113C203.385 89.7914 203.801 89.225 204.297 88.7323C205.287 87.8946 206.848 88.215 208.024 88.3255C209.49 88.5206 210.981 88.3913 212.391 87.9467C213.769 87.3926 215.114 86.7617 216.421 86.0571C217.891 85.3476 219.498 84.9677 221.131 84.9441C222.763 84.9205 224.38 85.2536 225.87 85.9203C226.162 86.08 226.503 86.122 226.825 86.0377C227.146 85.9535 227.423 85.7493 227.598 85.4673C227.765 85.1775 227.81 84.8339 227.726 84.5107C227.641 84.1876 227.432 83.9107 227.145 83.7398H227.145Z"
              fill="#211715"/>
        <path d="M215.865 77.5844C219.22 76.8472 222.729 77.418 225.677 79.1804C226.861 79.8464 227.912 80.7259 228.775 81.7745C229.596 82.8549 230.301 84.019 230.877 85.2473C231.614 86.697 233.793 85.4199 233.058 83.9724C231.566 81.0352 229.705 78.5337 226.778 76.9009C223.273 74.886 219.138 74.2608 215.194 75.1492C213.61 75.5092 214.281 77.9449 215.865 77.5844Z"
              fill="#211715"/>
        <path d="M236.458 85.3773C239.49 86.1384 242.133 87.995 243.878 90.5892C245.97 93.4727 247.532 96.7057 248.49 100.137C248.648 100.742 248.795 101.351 248.915 101.965C249.026 102.536 249.029 103.149 249.166 103.711C249.482 104.996 250.874 104.987 251.802 104.41C253.18 103.554 251.913 101.368 250.528 102.23C250.121 102.429 250.304 102.493 251.077 102.422L251.53 102.875C251.63 103.208 251.652 103.206 251.594 102.871C251.57 102.676 251.544 102.48 251.517 102.284C251.47 101.952 251.414 101.622 251.35 101.293C251.223 100.638 251.066 99.989 250.894 99.3465C250.595 98.2643 250.223 97.2036 249.78 96.172C248.917 94.0854 247.869 92.0805 246.647 90.1814C244.368 86.6828 241.272 83.9256 237.131 82.9432C235.552 82.5685 234.876 85.0032 236.459 85.3789L236.458 85.3773Z"
              fill="#211715"/>
        <path d="M287.398 245.581C285.683 209.761 281.529 178.391 278.277 167.547C277.342 164.429 275.938 162.558 274.379 161.311C272.82 160.063 270.228 159.236 268.426 158.364C262.569 155.535 254.922 152.385 248.919 149.88L247.775 149.403C246.008 147.556 244.027 145.926 241.873 144.55C239.251 155.789 234.593 167.921 230.901 178.857C228.423 186.194 225.946 193.531 223.468 200.868C220.164 192.675 217.979 187.161 215.175 178.857C211.482 167.922 206.825 155.79 204.203 144.55C202.062 145.917 200.092 147.535 198.333 149.368C191.667 152.146 183.342 155.593 176.923 158.692C174.897 159.671 172.519 160.129 170.982 161.775C169.412 163.46 168.197 165.442 167.409 167.606C162.847 179.519 161.416 183.412 158.391 194.725C157.207 198.809 155.528 205.354 154.902 210.579C154.223 216.252 154.423 220.461 156.812 225.513C159.201 230.564 163.537 233.342 170.172 232.621C173.404 232.17 176.428 230.767 178.859 228.591C180.272 227.317 181.535 225.887 182.625 224.329C182.677 226.398 182.644 228.493 182.553 230.691C182.337 235.758 182.101 239.205 181.753 245.635L287.398 245.581Z"
              fill="#BDBDBD"/>
        <path d="M224.425 149.416C224.384 149.445 224.348 149.482 224.32 149.525H221.88C221.564 149.251 221.197 149.043 220.8 148.913C215.241 146.677 210.603 143.267 208.571 140.536C206.567 142.378 205.931 143.804 204.625 146.299C207.301 157.04 211.671 168.489 215.173 178.859C217.977 187.164 220.162 192.677 223.466 200.87C225.944 193.533 228.422 186.196 230.899 178.859C234.418 168.437 238.815 156.927 241.488 146.14C240.24 143.742 239.588 142.339 237.627 140.536C235.596 143.267 230.958 146.677 225.398 148.913C225.056 149.044 224.73 149.212 224.425 149.416Z"
              fill="white"/>
        <path d="M235.433 137.647C235.467 139.617 235.586 141.737 236.494 143.527C237.358 145.229 238.945 146.579 240.417 147.743C240.659 147.97 240.978 148.097 241.31 148.097C241.642 148.097 241.962 147.97 242.203 147.743C242.438 147.505 242.57 147.184 242.57 146.85C242.57 146.515 242.438 146.195 242.203 145.957C241.469 145.386 240.769 144.771 240.11 144.115C239.565 143.605 239.1 143.014 238.734 142.363C238.694 142.29 238.657 142.215 238.62 142.14C238.689 142.279 238.62 142.153 238.596 142.081C238.526 141.893 238.462 141.701 238.405 141.508C238.29 141.105 238.2 140.696 238.135 140.282C238.016 139.408 237.957 138.528 237.959 137.646C237.959 137.311 237.825 136.99 237.589 136.753C237.352 136.516 237.031 136.383 236.696 136.383C236.361 136.383 236.04 136.516 235.803 136.753C235.566 136.99 235.433 137.311 235.433 137.646V137.647Z"
              fill="#211715"/>
        <path d="M205.812 148.342C207.346 147.101 208.947 145.63 209.74 143.783C210.563 141.866 210.646 139.721 210.655 137.662C210.661 136.037 208.136 136.035 208.129 137.662C208.137 138.59 208.096 139.516 208.006 140.439C207.931 141.191 207.762 141.93 207.504 142.639C206.843 144.243 205.338 145.495 204.026 146.557C203.791 146.795 203.66 147.115 203.66 147.45C203.66 147.784 203.791 148.105 204.026 148.342C204.267 148.572 204.587 148.701 204.919 148.701C205.252 148.701 205.572 148.572 205.812 148.342Z"
              fill="#211715"/>
        <path d="M232.732 158.817C236.171 154.806 239.007 150.315 241.151 145.487C240.107 143.473 239.405 142.168 237.629 140.534C235.597 143.265 230.959 146.676 225.4 148.912C225.003 149.042 224.635 149.25 224.319 149.523C224.186 149.771 224.445 149.989 224.567 150.184C224.758 150.49 225.697 151.275 227.295 153.029C229.108 155.02 231.232 157.028 232.732 158.817Z"
              fill="white"/>
        <path d="M213.466 158.817C210.028 154.806 207.192 150.315 205.047 145.487C206.092 143.473 206.793 142.168 208.57 140.534C210.601 143.265 215.24 146.676 220.798 148.912C221.196 149.042 221.563 149.25 221.879 149.523C222.012 149.771 221.754 149.989 221.632 150.184C221.44 150.49 220.502 151.275 218.904 153.029C217.09 155.02 214.967 157.028 213.466 158.817Z"
              fill="white"/>
        <path d="M224.651 151.101C223.279 151.106 222.138 151.108 220.751 151.109C220.296 151.56 219.677 152.182 218.904 153.031C218.49 153.485 218.062 153.941 217.623 154.394C217.93 155.982 218.144 156.986 218.482 158.432C218.535 158.686 218.6 158.931 218.664 159.185C218.822 159.729 218.914 160.29 218.936 160.856C218.936 161.18 217.347 172.777 216.235 181.952C218.563 188.634 220.591 193.738 223.468 200.87L230.286 180.681C228.887 171.328 227.407 161.555 227.416 161.037C227.485 160.024 227.705 159.026 228.069 158.077C228.461 156.875 228.701 155.824 228.958 154.79C228.392 154.206 227.83 153.618 227.295 153.031C226.516 152.175 225.893 151.55 225.437 151.098L224.651 151.101Z"
              fill="#5394CF"/>
        <path d="M219.325 162.042C221.939 162.042 224.554 161.984 227.169 161.983C227.504 161.983 227.825 161.85 228.062 161.613C228.299 161.376 228.432 161.055 228.432 160.72C228.432 160.385 228.299 160.064 228.062 159.827C227.825 159.59 227.504 159.457 227.169 159.457C224.554 159.457 221.939 159.515 219.325 159.516C218.99 159.516 218.668 159.649 218.432 159.886C218.195 160.123 218.062 160.444 218.062 160.779C218.062 161.114 218.195 161.435 218.432 161.672C218.668 161.909 218.99 162.042 219.325 162.042Z"
              fill="#211715"/>
        <path d="M216.529 155.363C216.755 156.502 217 157.637 217.266 158.767C217.505 159.478 217.64 160.219 217.665 160.969C217.612 161.749 217.47 162.533 217.368 163.308C216.902 166.877 216.428 170.445 215.969 174.015C215.653 176.471 215.344 178.928 215.042 181.386C215.044 181.72 215.177 182.041 215.414 182.277C215.65 182.513 215.97 182.647 216.305 182.649C216.637 182.641 216.954 182.505 217.189 182.27C217.424 182.035 217.56 181.718 217.568 181.386C218.089 177.116 218.642 172.85 219.199 168.584C219.528 166.078 219.973 163.557 220.181 161.037C220.195 160.252 220.083 159.47 219.849 158.721C219.518 157.386 219.231 156.038 218.964 154.689C218.872 154.368 218.658 154.096 218.367 153.931C218.076 153.766 217.733 153.722 217.41 153.807C217.091 153.902 216.82 154.117 216.656 154.406C216.492 154.696 216.446 155.038 216.528 155.361L216.529 155.363Z"
              fill="#211715"/>
        <path d="M225.288 149.838C223.737 149.842 222.186 149.845 220.636 149.848C220.301 149.848 219.98 149.981 219.743 150.218C219.506 150.455 219.373 150.776 219.373 151.111C219.373 151.446 219.506 151.767 219.743 152.004C219.98 152.241 220.301 152.374 220.636 152.374C222.187 152.372 223.737 152.368 225.288 152.364C225.623 152.364 225.944 152.231 226.181 151.994C226.418 151.757 226.551 151.436 226.551 151.101C226.551 150.766 226.418 150.445 226.181 150.208C225.944 149.971 225.623 149.838 225.288 149.838Z"
              fill="#211715"/>
        <path d="M231.502 180.338C230.893 176.261 230.283 172.183 229.673 168.106C229.448 166.59 229.226 165.074 229.007 163.557C228.93 163.017 228.854 162.476 228.779 161.935C228.766 161.838 228.809 162.167 228.775 161.908C228.766 161.829 228.755 161.75 228.745 161.673C228.728 161.536 228.708 161.398 228.696 161.26C228.674 160.675 228.756 160.091 228.938 159.535C229.244 158.426 229.622 157.342 229.905 156.225C230.301 154.646 227.866 153.976 227.469 155.553C227.021 157.334 226.082 159.232 226.153 161.097C226.184 161.877 226.349 162.665 226.457 163.436C226.931 166.806 227.443 170.171 227.946 173.538C228.319 176.029 228.693 178.52 229.065 181.01C229.156 181.332 229.37 181.605 229.661 181.77C229.952 181.935 230.296 181.979 230.619 181.893C230.937 181.797 231.206 181.582 231.371 181.292C231.535 181.003 231.581 180.662 231.501 180.339L231.502 180.338Z"
              fill="#211715"/>
        <path d="M221.498 202.764C220.531 205.557 220.037 208.491 220.034 211.447C220.072 213.307 220.275 215.174 220.393 217.03C220.752 222.703 220.985 228.381 221.38 234.052C221.652 237.949 221.959 241.843 222.3 245.733C222.309 246.066 222.444 246.382 222.679 246.617C222.914 246.852 223.231 246.988 223.563 246.996C223.897 246.994 224.217 246.86 224.453 246.624C224.69 246.387 224.823 246.068 224.826 245.733C223.847 234.602 223.361 223.448 222.6 212.303C222.474 209.288 222.927 206.277 223.934 203.432C224.438 201.883 222 201.222 221.498 202.761V202.764Z"
              fill="#211715"/>
        <path d="M233.647 198.979C240.27 187.9 246.82 176.767 252.878 165.368C253.315 164.544 253.689 163.737 253.375 162.795C253.097 161.964 252.371 161.36 251.77 160.758C250.451 159.437 249.075 158.175 247.691 156.923L247.436 158.906L250.607 157.157C251.528 156.649 252.926 156.164 252.99 154.927C253.033 154.101 252.443 153.275 252.01 152.607C251.526 151.872 251.001 151.165 250.439 150.489C248.203 147.724 245.523 145.35 242.51 143.463C242.342 143.367 242.155 143.311 241.963 143.298C241.771 143.285 241.578 143.317 241.399 143.389C241.22 143.462 241.061 143.574 240.932 143.718C240.803 143.861 240.708 144.032 240.655 144.217C238.866 151.862 236.348 159.319 233.774 166.726C231.151 174.275 228.563 181.835 226.008 189.405L221.497 202.762C220.976 204.306 223.415 204.968 223.933 203.434C226.634 195.436 229.335 187.438 232.036 179.44C234.525 172.073 237.218 164.77 239.582 157.358C240.894 153.243 242.108 149.093 243.091 144.888L241.236 145.643C243.17 146.866 244.952 148.314 246.545 149.957C247.403 150.806 248.209 151.706 248.957 152.653C249.266 153.049 249.557 153.461 249.83 153.882C249.968 154.093 250.101 154.31 250.227 154.53C250.281 154.623 250.333 154.717 250.385 154.811C250.422 154.88 250.459 154.95 250.494 155.022C250.553 155.143 250.544 155.113 250.466 154.931L250.639 154.294C250.728 154.205 250.708 154.205 250.58 154.294L250.24 154.481L249.787 154.731L248.541 155.418L246.163 156.73C245.998 156.829 245.857 156.964 245.751 157.125C245.646 157.286 245.578 157.469 245.554 157.66C245.529 157.851 245.548 158.045 245.609 158.227C245.67 158.41 245.772 158.576 245.907 158.714C247.075 159.771 248.238 160.836 249.366 161.937C249.603 162.168 249.839 162.402 250.073 162.637C250.4 162.894 250.69 163.192 250.937 163.525C250.986 163.63 251 163.495 250.922 163.679C250.753 164.073 250.509 164.456 250.306 164.836C248.891 167.487 247.45 170.124 245.983 172.747C242.962 178.163 239.857 183.533 236.712 188.877C234.975 191.828 233.227 194.773 231.469 197.71C230.632 199.109 232.815 200.381 233.649 198.985L233.647 198.979Z"
              fill="#211715"/>
        <path d="M199.09 156.364C198.44 156.003 197.801 155.624 197.159 155.25C196.816 155.049 196.472 154.849 196.128 154.649C195.981 154.565 195.835 154.481 195.689 154.397C195.604 154.349 195.353 154.129 195.438 154.292L195.611 154.929C195.619 155.13 195.533 155.099 195.655 154.882C195.708 154.789 195.757 154.694 195.809 154.601C195.933 154.383 196.063 154.168 196.199 153.956C196.468 153.535 196.756 153.124 197.061 152.729C199.258 149.966 201.884 147.575 204.84 145.646L202.985 144.891C204.777 152.536 207.292 159.992 209.866 167.4C212.351 174.556 214.728 181.756 217.39 188.847C218.864 192.772 220.421 196.662 221.987 200.55C222.085 200.867 222.3 201.135 222.589 201.299C222.877 201.463 223.218 201.511 223.54 201.432C223.862 201.341 224.135 201.127 224.3 200.836C224.465 200.545 224.509 200.201 224.422 199.878C221.643 192.98 218.95 186.056 216.559 179.012C214.06 171.645 211.378 164.336 209.007 156.926C207.666 152.734 206.429 148.507 205.423 144.219C205.369 144.034 205.275 143.863 205.146 143.72C205.017 143.576 204.857 143.464 204.678 143.391C204.5 143.319 204.307 143.287 204.114 143.3C203.922 143.313 203.735 143.369 203.567 143.465C200.333 145.487 197.486 148.071 195.16 151.094C194.148 152.397 191.918 154.947 193.944 156.309C195.168 157.132 196.528 157.832 197.817 158.548C199.238 159.337 200.514 157.157 199.092 156.367L199.09 156.364Z"
              fill="#211715"/>
        <path d="M232.732 158.817C236.171 154.806 239.007 150.315 241.151 145.487C240.107 143.473 239.405 142.168 237.629 140.534C235.597 143.265 230.959 146.676 225.4 148.912C225.003 149.042 224.635 149.25 224.319 149.523C224.186 149.771 224.445 149.989 224.567 150.184C224.758 150.49 225.697 151.275 227.295 153.029C229.108 155.02 231.232 157.028 232.732 158.817Z"
              fill="white"/>
        <path d="M213.466 158.817C210.028 154.806 207.192 150.315 205.047 145.487C206.092 143.473 206.793 142.168 208.57 140.534C210.601 143.265 215.24 146.676 220.798 148.912C221.196 149.042 221.563 149.25 221.879 149.523C222.012 149.771 221.754 149.989 221.632 150.184C221.44 150.49 220.502 151.275 218.904 153.029C217.09 155.02 214.967 157.028 213.466 158.817Z"
              fill="white"/>
        <path d="M233.625 159.712C236.215 156.675 238.482 153.377 240.391 149.872C240.852 149.011 241.293 148.139 241.713 147.256C241.972 146.799 242.192 146.321 242.37 145.826C242.542 145.2 242.132 144.635 241.852 144.107C241.001 142.442 239.875 140.934 238.522 139.645C238.383 139.513 238.216 139.413 238.034 139.354C237.852 139.294 237.659 139.276 237.469 139.3C237.279 139.325 237.097 139.392 236.936 139.495C236.775 139.599 236.639 139.738 236.538 139.901C234.42 142.709 230.793 144.955 227.562 146.566C226.509 147.092 225.411 147.493 224.357 148.003C223.256 148.536 222.613 149.572 223.391 150.705C224.212 151.9 225.425 152.862 226.402 153.926C228.191 155.873 230.131 157.69 231.839 159.714C232.078 159.948 232.398 160.08 232.732 160.08C233.066 160.08 233.387 159.948 233.625 159.714C233.856 159.474 233.985 159.154 233.985 158.821C233.985 158.488 233.856 158.168 233.625 157.928C232.02 156.025 230.202 154.315 228.511 152.491C227.784 151.707 227.056 150.927 226.297 150.176C226.092 149.973 225.89 149.766 225.685 149.564C225.603 149.483 225.422 149.217 225.68 149.586C225.649 149.542 225.48 149.253 225.5 149.338V150.009L225.537 149.864L225.212 150.421C225.084 150.572 225.344 150.332 225.44 150.281C225.536 150.23 225.636 150.18 225.736 150.135C226.161 149.943 226.6 149.779 227.027 149.593C227.779 149.265 228.519 148.915 229.249 148.54C230.59 147.854 231.887 147.086 233.133 146.24C235.259 144.869 237.146 143.159 238.719 141.178L236.736 141.433C238.112 142.791 239.238 144.381 240.061 146.13V144.855C237.917 149.562 235.152 153.959 231.839 157.93C231.611 158.171 231.483 158.491 231.483 158.823C231.483 159.155 231.611 159.475 231.839 159.716C232.078 159.95 232.399 160.08 232.733 160.079C233.067 160.078 233.388 159.947 233.625 159.712Z"
              fill="#211715"/>
        <path d="M214.359 157.926C211.046 153.955 208.281 149.557 206.138 144.851V146.126C206.961 144.377 208.086 142.786 209.463 141.429L207.48 141.174C209.053 143.155 210.94 144.865 213.066 146.236C214.312 147.081 215.609 147.85 216.95 148.536C217.643 148.893 218.348 149.228 219.062 149.542C219.49 149.73 219.924 149.9 220.352 150.086C220.491 150.147 220.624 150.206 220.758 150.277C220.844 150.323 221.138 150.596 220.986 150.418L220.662 149.861L220.699 150.006V149.334C220.718 149.249 220.549 149.539 220.518 149.583C220.781 149.214 220.596 149.477 220.514 149.56C220.309 149.763 220.107 149.969 219.902 150.172C219.143 150.925 218.414 151.705 217.688 152.487C215.996 154.312 214.179 156.022 212.573 157.924C212.344 158.165 212.217 158.485 212.217 158.817C212.217 159.15 212.344 159.469 212.573 159.71C212.811 159.944 213.132 160.076 213.466 160.076C213.8 160.076 214.121 159.944 214.359 159.71C215.861 157.93 217.551 156.319 219.147 154.625C219.887 153.839 220.609 153.038 221.372 152.274C221.74 151.905 222.139 151.552 222.476 151.15C223.198 150.285 223.521 149.134 222.461 148.361C221.592 147.729 220.452 147.423 219.482 146.968C217.476 146.034 215.558 144.92 213.752 143.64C212.22 142.591 210.844 141.33 209.664 139.896C209.564 139.733 209.428 139.595 209.267 139.491C209.106 139.387 208.924 139.32 208.734 139.296C208.544 139.271 208.351 139.289 208.168 139.349C207.986 139.409 207.82 139.508 207.681 139.64C206.328 140.93 205.202 142.438 204.351 144.102C204.095 144.584 203.734 145.086 203.811 145.654C203.947 146.181 204.16 146.685 204.442 147.151C204.879 148.066 205.335 148.971 205.811 149.867C207.72 153.372 209.987 156.67 212.576 159.707C212.814 159.941 213.135 160.073 213.469 160.073C213.803 160.073 214.124 159.941 214.362 159.707C214.591 159.467 214.718 159.148 214.717 158.816C214.717 158.484 214.588 158.165 214.359 157.926Z"
              fill="#211715"/>
        <path d="M264.458 245.737C264.45 240.797 264.152 235.863 264.143 230.923C264.132 225.475 263.995 219.984 264.86 214.586C265.696 209.364 266.671 204.167 267.482 198.938C268.299 193.674 269.057 188.401 269.755 183.119C270.492 177.583 271.157 172.039 271.75 166.486C271.748 166.152 271.614 165.832 271.378 165.596C271.142 165.359 270.822 165.226 270.487 165.224C270.155 165.231 269.838 165.366 269.602 165.602C269.367 165.837 269.232 166.154 269.225 166.486C268.153 176.635 266.81 186.755 265.266 196.842C264.468 202.054 263.606 207.254 262.679 212.444C261.704 217.864 261.596 223.298 261.613 228.79C261.631 234.442 261.923 240.086 261.933 245.737C261.933 247.362 264.461 247.365 264.458 245.737Z"
              fill="#211715"/>
        <path d="M181.364 224.433C181.517 231.498 180.872 238.587 180.49 245.638C180.403 247.263 182.928 247.258 183.016 245.638C183.398 238.587 184.043 231.498 183.89 224.433C183.854 222.81 181.329 222.804 181.364 224.433Z"
              fill="#211715"/>
        <path d="M180.29 182.634C179.579 177.246 177.963 172.005 177.38 166.604C177.37 166.272 177.234 165.956 176.999 165.721C176.765 165.486 176.449 165.35 176.117 165.341C175.782 165.343 175.462 165.477 175.226 165.713C174.99 165.949 174.856 166.27 174.854 166.604C175.438 172.014 177.053 177.244 177.764 182.634C177.775 182.965 177.911 183.281 178.146 183.515C178.38 183.75 178.695 183.886 179.027 183.896C179.361 183.894 179.681 183.761 179.918 183.524C180.154 183.288 180.288 182.968 180.29 182.634Z"
              fill="#211715"/>
        <path d="M248.583 151.102C256.157 154.259 263.678 157.531 271.145 160.918C272.668 161.53 274.014 162.514 275.059 163.779C276.036 165.123 276.75 166.639 277.164 168.248C277.707 170.122 278.139 172.029 278.537 173.938C279.722 179.621 280.589 185.37 281.371 191.119C282.423 198.865 283.257 206.641 283.97 214.426C284.809 223.585 285.468 232.759 285.949 241.945C286.013 243.157 286.074 244.369 286.132 245.581C286.21 247.199 288.736 247.208 288.658 245.581C288.202 236.113 287.564 226.656 286.745 217.21C286.033 209.068 285.184 200.936 284.124 192.832C283.322 186.7 282.432 180.569 281.224 174.502C280.224 169.487 279.314 163.505 274.997 160.209C273.431 159.014 271.531 158.38 269.748 157.592C267.86 156.759 266.012 155.836 264.128 154.995C260.114 153.201 256.059 151.504 252.002 149.812C251.086 149.43 250.169 149.048 249.252 148.666C248.929 148.579 248.585 148.623 248.294 148.788C248.004 148.953 247.79 149.226 247.699 149.548C247.618 149.871 247.665 150.212 247.829 150.501C247.993 150.79 248.262 151.006 248.581 151.102H248.583Z"
              fill="#211715"/>
        <path d="M230.518 207.892C230.16 208.05 230.518 207.9 230.608 207.872C230.699 207.844 230.807 207.82 230.907 207.797C230.96 207.786 231.132 207.773 230.93 207.788C230.698 207.804 230.959 207.788 230.993 207.788C231.109 207.78 231.225 207.779 231.341 207.784C231.394 207.784 231.444 207.793 231.495 207.796C231.671 207.806 231.17 207.721 231.426 207.79C231.525 207.817 231.624 207.836 231.722 207.868C231.769 207.883 231.819 207.91 231.866 207.921C231.835 207.914 231.596 207.786 231.774 207.889C231.883 207.953 231.989 208.04 232.1 208.096C232.076 208.083 231.875 207.902 232.024 208.041C232.06 208.074 232.098 208.105 232.134 208.138C232.203 208.203 232.269 208.271 232.331 208.342C232.359 208.378 232.388 208.413 232.419 208.447C232.217 208.267 232.285 208.262 232.341 208.352C232.398 208.441 232.457 208.53 232.508 208.625C232.527 208.662 232.544 208.699 232.563 208.736C232.657 208.915 232.505 208.599 232.511 208.603C232.554 208.682 232.583 208.769 232.596 208.858C232.617 208.933 232.633 209.009 232.649 209.085C232.672 209.19 232.659 209.34 232.635 208.948C232.635 208.995 232.645 209.041 232.649 209.088C232.66 209.244 232.66 209.4 232.649 209.555C232.639 209.681 232.572 209.908 232.663 209.482C232.646 209.565 232.634 209.649 232.615 209.732C232.585 209.856 232.545 209.977 232.505 210.1C232.422 210.353 232.631 209.841 232.549 210.002C232.519 210.063 232.491 210.124 232.458 210.183C232.435 210.226 232.409 210.268 232.382 210.31C232.36 210.343 232.329 210.377 232.311 210.411C232.463 210.136 232.455 210.237 232.373 210.323C232.317 210.383 232.262 210.443 232.201 210.498C232.171 210.526 232.138 210.551 232.109 210.58C232.018 210.669 232.389 210.387 232.169 210.533C232.023 210.629 231.87 210.717 231.713 210.796C231.531 210.887 232.02 210.682 231.725 210.787C231.626 210.821 231.526 210.852 231.425 210.878C231.333 210.901 231.241 210.919 231.149 210.937C231.096 210.948 230.941 210.968 231.162 210.937C231.407 210.903 231.166 210.933 231.113 210.937C230.918 210.948 230.724 210.944 230.53 210.927C230.327 210.913 230.693 210.944 230.688 210.948C230.628 210.944 230.569 210.933 230.512 210.915C230.417 210.893 230.323 210.867 230.23 210.836C229.944 210.738 230.454 210.959 230.242 210.844C230.152 210.795 230.063 210.748 229.979 210.691C229.689 210.524 229.345 210.479 229.022 210.563C228.699 210.648 228.422 210.857 228.251 211.144C228.09 211.435 228.047 211.777 228.131 212.099C228.216 212.421 228.421 212.697 228.704 212.872C229.652 213.433 230.779 213.611 231.854 213.368C232.402 213.267 232.925 213.057 233.391 212.751C233.857 212.445 234.256 212.048 234.566 211.585C235.009 210.861 235.224 210.021 235.183 209.174C235.165 208.608 235.028 208.052 234.783 207.541C234.537 207.031 234.188 206.577 233.757 206.209C233.111 205.661 232.307 205.332 231.462 205.27C230.698 205.229 229.937 205.383 229.249 205.717C228.965 205.883 228.757 206.154 228.67 206.472C228.582 206.8 228.628 207.15 228.797 207.444C228.964 207.728 229.235 207.935 229.552 208.023C229.881 208.094 230.225 208.049 230.525 207.896L230.518 207.892Z"
              fill="#211715"/>
        <path d="M171.435 200.115C170.363 201.162 169.256 202.171 168.113 203.141C167.558 203.612 166.995 204.073 166.424 204.524L166.172 204.722L166.046 204.821L165.92 204.918L165.665 205.113C165.357 205.345 165.048 205.575 164.737 205.802C164.454 205.977 164.248 206.254 164.164 206.575C164.08 206.897 164.123 207.239 164.284 207.53C164.455 207.817 164.732 208.024 165.055 208.109C165.378 208.194 165.721 208.149 166.011 207.983C168.556 206.129 170.965 204.096 173.22 201.9C173.337 201.783 173.43 201.644 173.494 201.491C173.557 201.337 173.59 201.173 173.59 201.007C173.59 200.841 173.557 200.677 173.494 200.524C173.43 200.371 173.337 200.232 173.22 200.114C173.103 199.997 172.963 199.904 172.81 199.841C172.657 199.777 172.493 199.744 172.327 199.745C172.161 199.745 171.997 199.777 171.843 199.841C171.69 199.904 171.551 199.997 171.434 200.115H171.435Z"
              fill="#211715"/>
        <path d="M189.522 188.374C188.963 186.739 187.532 185.768 186.036 184.905C185.285 184.473 184.496 184.109 183.68 183.819C183.699 182.777 184.307 181.479 184.879 180.436C185.81 178.739 187.832 178.088 189.315 178.929C189.315 178.929 193.251 181.133 192.169 184.752C191.034 188.55 189.522 188.374 189.522 188.374Z"
              fill="white"/>
        <path d="M186.349 213.818C183.726 215.44 180.626 216.111 177.567 215.718C175.738 215.498 174.029 214.695 172.693 213.427C171.911 212.578 171.271 211.609 170.799 210.555C167.946 204.641 167.35 197.889 169.121 191.566C170.142 187.976 172.29 184.293 175.869 183.239C178.954 182.45 182.935 183.113 186.037 184.905C187.533 185.768 188.964 186.739 189.523 188.374C190.083 190.008 189.465 191.783 187.84 192.367C188.657 192.561 189.388 193.017 189.923 193.664C190.458 194.312 190.767 195.116 190.804 195.955C190.864 196.736 190.66 197.514 190.224 198.165C189.788 198.816 189.146 199.301 188.401 199.543C189.899 199.648 190.796 201.469 190.71 202.871C190.624 204.272 189.223 205.575 187.777 205.97C189.263 206.573 190.029 208.819 189.527 210.342C189.024 211.865 187.725 212.988 186.349 213.818Z"
              fill="white"/>
        <path d="M185.711 212.727C183.856 213.86 181.741 214.498 179.568 214.577C177.598 214.621 175.398 214.181 173.891 212.824C172.306 211.397 171.439 209.16 170.768 207.182C170.045 205.071 169.599 202.875 169.442 200.649C169.166 196.565 169.705 192.072 171.74 188.458C172.557 186.856 173.857 185.552 175.456 184.73C177.094 183.971 179.192 184.055 180.928 184.378C183.182 184.755 185.303 185.697 187.094 187.117C187.466 187.39 187.779 187.737 188.014 188.135C188.248 188.533 188.4 188.974 188.458 189.432C188.499 189.783 188.429 190.138 188.257 190.446C188.086 190.755 187.821 191.001 187.502 191.151C187.24 191.232 187.009 191.393 186.843 191.612C186.677 191.83 186.583 192.095 186.575 192.369C186.577 192.645 186.669 192.913 186.836 193.132C187.003 193.352 187.237 193.511 187.502 193.587C189.758 194.102 190.367 197.404 188.063 198.327C187.777 198.417 187.532 198.605 187.372 198.858C187.211 199.11 187.145 199.412 187.185 199.709C187.225 200.006 187.369 200.279 187.591 200.48C187.813 200.681 188.1 200.797 188.399 200.808C189.05 200.881 189.443 202.04 189.451 202.636C189.463 203.7 188.36 204.477 187.441 204.754C186.494 205.039 186.094 206.596 187.14 207.062C187.588 207.308 187.951 207.686 188.177 208.145C188.403 208.604 188.483 209.121 188.405 209.626C188.2 211.029 186.832 212.043 185.713 212.731C184.33 213.58 185.598 215.765 186.988 214.912C188.819 213.789 190.624 212.141 190.899 209.893C191.131 208.006 190.234 205.698 188.415 204.883L188.113 207.192C190.169 206.573 192.087 204.766 191.971 202.476C191.866 200.406 190.532 198.525 188.401 198.284L188.737 200.765C190.765 199.952 192.262 198.159 192.058 195.871C191.993 194.776 191.582 193.729 190.884 192.881C190.187 192.034 189.238 191.429 188.175 191.155V193.59C188.72 193.384 189.218 193.07 189.64 192.668C190.061 192.266 190.399 191.784 190.631 191.25C190.864 190.716 190.988 190.141 190.995 189.558C191.002 188.976 190.893 188.398 190.674 187.858C189.809 185.583 187.554 184.143 185.424 183.179C183.109 182.099 180.571 181.581 178.017 181.668C175.642 181.725 173.378 182.685 171.686 184.352C168.216 187.796 167.027 193.216 166.873 197.934C166.79 200.581 167.077 203.227 167.726 205.794C168.366 208.333 169.326 211.048 170.866 213.189C174.564 218.329 182.058 217.83 186.988 214.912C188.385 214.081 187.115 211.896 185.711 212.727Z"
              fill="#211715"/>
        <path d="M178.665 192.944C181.717 193.24 184.778 193.433 187.838 193.628C188.172 193.628 188.494 193.495 188.731 193.258C188.967 193.021 189.1 192.7 189.1 192.365C189.1 192.03 188.967 191.709 188.731 191.472C188.494 191.235 188.172 191.102 187.838 191.102C184.778 190.905 181.717 190.712 178.665 190.418C178.331 190.42 178.011 190.554 177.775 190.79C177.538 191.027 177.404 191.347 177.402 191.681C177.409 192.014 177.544 192.331 177.78 192.566C178.015 192.801 178.332 192.937 178.665 192.944Z"
              fill="#211715"/>
        <path d="M178.883 200.084C182.055 200.33 185.237 200.441 188.399 200.805C188.733 200.804 189.054 200.67 189.29 200.434C189.526 200.197 189.66 199.877 189.662 199.543C189.654 199.21 189.519 198.893 189.284 198.658C189.048 198.423 188.732 198.287 188.399 198.28C185.237 197.916 182.055 197.806 178.883 197.558C178.549 197.561 178.23 197.695 177.994 197.931C177.757 198.168 177.623 198.487 177.621 198.821C177.627 199.154 177.762 199.472 177.998 199.707C178.233 199.942 178.551 200.078 178.883 200.084Z"
              fill="#211715"/>
        <path d="M179.312 207.137C182.134 207.151 184.953 207.286 187.775 207.233C188.11 207.233 188.431 207.1 188.668 206.863C188.905 206.626 189.038 206.305 189.038 205.97C189.038 205.635 188.905 205.314 188.668 205.077C188.431 204.84 188.11 204.707 187.775 204.707C184.953 204.76 182.134 204.626 179.312 204.611C178.977 204.611 178.656 204.744 178.419 204.981C178.182 205.218 178.049 205.539 178.049 205.874C178.049 206.209 178.182 206.53 178.419 206.767C178.656 207.004 178.977 207.137 179.312 207.137Z"
              fill="#211715"/>
        <path d="M189.952 177.838C189.149 177.418 188.237 177.251 187.337 177.358C186.437 177.465 185.59 177.841 184.907 178.438C184.253 179.026 183.737 179.75 183.393 180.559C182.895 181.503 182.569 182.529 182.43 183.587C182.431 183.922 182.565 184.242 182.801 184.479C183.038 184.716 183.359 184.849 183.693 184.85C184.025 184.841 184.342 184.705 184.576 184.47C184.811 184.235 184.947 183.919 184.956 183.587C184.985 183.314 184.9 183.837 184.956 183.584C184.98 183.482 184.998 183.38 185.024 183.278C185.069 183.097 185.124 182.919 185.185 182.742C185.222 182.637 185.261 182.532 185.302 182.426C185.328 182.359 185.416 182.077 185.323 182.367C185.393 182.183 185.476 182.005 185.571 181.833C185.726 181.501 185.9 181.177 186.091 180.864C186.141 180.802 186.186 180.736 186.225 180.666C186.106 180.816 186.089 180.839 186.173 180.735L186.225 180.676C186.334 180.549 186.452 180.431 186.577 180.321C186.612 180.29 186.806 180.101 186.654 180.254C186.503 180.406 186.694 180.232 186.74 180.201C186.875 180.117 187.014 180.039 187.157 179.969C187.368 179.864 186.885 180.061 187.124 179.984C187.192 179.962 187.259 179.936 187.328 179.916C187.461 179.876 187.616 179.868 187.744 179.82C187.481 179.918 187.534 179.844 187.689 179.833C187.759 179.828 187.829 179.825 187.9 179.825C187.97 179.825 188.04 179.825 188.11 179.832C188.156 179.835 188.203 179.84 188.249 179.845L188.052 179.82C188.186 179.86 188.322 179.893 188.46 179.918C188.505 179.933 188.549 179.948 188.593 179.965C188.412 179.885 188.366 179.866 188.455 179.906C188.526 179.947 188.605 179.979 188.678 180.019C188.967 180.188 189.312 180.235 189.636 180.15C189.96 180.065 190.237 179.855 190.406 179.566C190.575 179.276 190.622 178.932 190.537 178.608C190.452 178.284 190.242 178.007 189.952 177.838V177.838Z"
              fill="#211715"/>
        <path d="M192.068 171.784C191.514 171.092 191.12 170.286 190.912 169.425C190.704 168.563 190.687 167.666 190.864 166.797C191.041 165.929 191.407 165.11 191.935 164.398C192.463 163.686 193.142 163.099 193.922 162.678C196.271 161.279 199.282 161.419 201.859 162.355C203.141 162.821 205.124 163.475 206.824 164.06C209.998 165.154 213.313 164.484 216.735 164.294C218.596 164.189 220.608 164.361 222.029 165.433C223.45 166.505 223.878 168.725 222.465 169.83"
              fill="white"/>
        <path d="M192.963 170.891C192.91 170.834 192.857 170.774 192.808 170.714C193.013 170.955 192.868 170.799 192.827 170.726C192.741 170.573 192.64 170.429 192.557 170.271C192.525 170.21 192.495 170.148 192.464 170.086C192.306 169.77 192.55 170.327 192.419 169.986C192.334 169.768 192.261 169.546 192.2 169.32C192.093 168.984 192.032 168.634 192.02 168.282C191.988 167.849 192.014 167.414 192.098 166.988C192.606 164.64 194.963 163.073 197.375 162.92C198.847 162.858 200.316 163.101 201.69 163.632C203.213 164.175 204.747 164.685 206.277 165.205C209.671 166.36 213.127 165.766 216.613 165.564C218.118 165.477 219.987 165.445 221.251 166.418C222.116 167.084 222.398 168.244 221.575 168.937C221.341 169.176 221.21 169.496 221.21 169.83C221.21 170.164 221.341 170.485 221.575 170.723C221.815 170.954 222.135 171.082 222.468 171.082C222.801 171.082 223.121 170.954 223.361 170.723C223.947 170.193 224.351 169.492 224.517 168.719C224.683 167.946 224.602 167.141 224.286 166.417C223.605 164.719 222.04 163.703 220.303 163.291C216.432 162.374 212.453 163.975 208.565 163.217C204.909 162.503 201.625 160.313 197.807 160.378C194.41 160.436 191.031 162.322 189.862 165.626C189.058 167.892 189.52 170.888 191.177 172.677C192.282 173.872 194.067 172.082 192.963 170.891Z"
              fill="#211715"/>
        <path d="M191.973 220.559C191.825 219.724 191.725 218.88 191.674 218.033C191.278 213.219 190.296 180.09 190.266 174.824C190.198 172.15 191.653 170.821 194.313 170.548C198.839 170.085 203.004 169.777 206.611 169.676C209.983 169.583 215.932 169.422 220.124 169.597C222.197 169.684 224.065 170.755 223.934 173.379C224.157 177.601 225.35 212.12 225.29 216.989C225.268 218.728 225.124 220.316 224.529 221.595C224.111 222.489 223.113 223.838 220.661 224.39C216.706 225.204 212.682 225.633 208.644 225.671C203.319 225.819 198.955 225.677 196.294 224.991C195.533 224.819 194.814 224.497 194.179 224.044C193.544 223.591 193.005 223.016 192.594 222.352C192.299 221.789 192.09 221.184 191.973 220.559Z"
              fill="white"/>
        <path d="M195.072 182.65C195.272 191.358 196.792 218.656 196.814 218.916C196.992 218.947 220.124 218.347 220.236 218.327C220.25 218.011 220.019 190.71 219.693 181.855C212.15 181.699 195.312 182.631 195.072 182.65Z"
              fill="#FFDA71"/>
        <path d="M216.746 189.245C216.316 189.205 215.882 189.253 215.471 189.386C215.06 189.518 214.68 189.733 214.354 190.017C213.998 190.345 213.724 190.753 213.555 191.207C213.386 191.661 213.327 192.149 213.383 192.63C213.439 193.311 213.712 193.955 214.162 194.469C214.613 194.982 215.217 195.336 215.885 195.48C216.552 195.623 217.249 195.547 217.87 195.264C218.491 194.981 219.005 194.505 219.335 193.907C219.549 193.486 219.669 193.023 219.688 192.551C219.708 192.079 219.625 191.608 219.446 191.171C219.216 190.633 218.842 190.169 218.366 189.829C217.89 189.49 217.33 189.287 216.746 189.245Z"
              fill="white"/>
        <path d="M211.193 198.52C210.883 198.491 210.57 198.526 210.273 198.622C209.976 198.717 209.702 198.872 209.467 199.077C209.21 199.314 209.012 199.608 208.89 199.936C208.769 200.264 208.726 200.616 208.766 200.963C208.806 201.454 209.003 201.92 209.328 202.29C209.653 202.661 210.089 202.917 210.571 203.02C211.053 203.124 211.556 203.069 212.005 202.865C212.453 202.66 212.824 202.316 213.062 201.885C213.216 201.58 213.303 201.247 213.317 200.906C213.331 200.565 213.271 200.225 213.142 199.909C212.976 199.521 212.706 199.186 212.363 198.941C212.019 198.696 211.614 198.55 211.193 198.52Z"
              fill="white"/>
        <path d="M216.746 187.982C215.781 187.915 214.821 188.171 214.018 188.71C213.215 189.249 212.613 190.039 212.308 190.957C212.06 191.771 212.043 192.638 212.258 193.461C212.473 194.284 212.912 195.031 213.527 195.619C214.188 196.221 215.013 196.613 215.897 196.744C216.782 196.874 217.685 196.738 218.492 196.352C219.303 195.968 219.974 195.339 220.41 194.555C220.846 193.77 221.027 192.869 220.925 191.977C220.827 190.903 220.338 189.904 219.551 189.167C218.77 188.477 217.786 188.061 216.746 187.982C216.412 187.983 216.091 188.116 215.855 188.353C215.618 188.59 215.485 188.91 215.483 189.245C215.492 189.577 215.628 189.893 215.863 190.128C216.098 190.363 216.414 190.499 216.746 190.507C217.04 190.536 216.531 190.458 216.716 190.503C216.787 190.52 216.86 190.531 216.931 190.549C217.045 190.577 217.155 190.617 217.267 190.651C217.542 190.734 217.09 190.555 217.25 190.642C217.302 190.67 217.355 190.694 217.408 190.721C217.472 190.756 217.536 190.793 217.598 190.832C217.669 190.876 217.909 190.981 217.631 190.839C217.73 190.905 217.818 190.985 217.894 191.076C217.947 191.129 217.993 191.188 218.046 191.241C218.174 191.367 217.888 190.988 218.043 191.236C218.108 191.341 218.177 191.442 218.235 191.551C218.241 191.563 218.36 191.841 218.292 191.662C218.229 191.496 218.338 191.816 218.348 191.852C218.372 191.936 218.388 192.021 218.41 192.106C218.429 192.177 218.495 192.313 218.41 192.08C218.439 192.219 218.444 192.361 218.426 192.501C218.426 192.506 218.413 192.85 218.426 192.646C218.439 192.443 218.401 192.776 218.398 192.788C218.36 192.958 218.31 193.126 218.247 193.288C218.344 193.028 218.173 193.406 218.13 193.474C218.097 193.543 218.055 193.607 218.003 193.663C218.023 193.647 218.191 193.453 218.031 193.616C217.949 193.701 217.863 193.781 217.779 193.865C217.577 194.064 217.944 193.764 217.793 193.856C217.718 193.901 217.647 193.953 217.571 193.998C217.508 194.035 217.441 194.066 217.378 194.103C217.252 194.172 217.29 194.076 217.437 194.082C217.306 194.109 217.178 194.15 217.057 194.206C216.929 194.239 216.784 194.245 216.66 194.287C216.899 194.208 216.825 194.27 216.725 194.272C216.633 194.272 216.541 194.282 216.45 194.283C216.373 194.283 216.296 194.275 216.22 194.275C216.044 194.275 216.46 194.328 216.291 194.285C216.164 194.254 216.036 194.232 215.911 194.192C215.856 194.178 215.801 194.159 215.749 194.135C215.773 194.202 215.988 194.247 215.779 194.142C215.642 194.071 215.51 193.991 215.382 193.905C215.22 193.799 215.431 193.95 215.438 193.948C215.393 193.915 215.352 193.878 215.313 193.837C215.278 193.805 215.016 193.579 215.026 193.532C215.026 193.532 215.204 193.792 215.07 193.585C215.039 193.537 215.007 193.492 214.976 193.444C214.946 193.396 214.747 193.119 214.774 193.072C214.744 193.124 214.869 193.324 214.787 193.097C214.762 193.029 214.74 192.962 214.719 192.893C214.687 192.782 214.667 192.669 214.639 192.556C214.571 192.274 214.647 192.781 214.639 192.584C214.639 192.503 214.627 192.423 214.626 192.343C214.626 192.278 214.626 192.213 214.629 192.149C214.629 192.101 214.634 192.052 214.639 192.004C214.649 191.908 214.644 191.94 214.625 192.1C214.632 191.938 214.671 191.778 214.741 191.631C214.758 191.568 214.78 191.508 214.807 191.449C214.655 191.72 214.807 191.466 214.845 191.403C214.882 191.34 214.926 191.265 214.97 191.198C214.996 191.158 215.023 191.119 215.053 191.08C214.962 191.196 214.947 191.219 215.007 191.15C215.066 191.097 215.116 191.032 215.174 190.977C215.224 190.93 215.461 190.76 215.235 190.915C215.374 190.819 215.519 190.732 215.669 190.652C215.909 190.524 215.646 190.652 215.641 190.66C215.73 190.616 215.825 190.585 215.922 190.568C215.985 190.55 216.049 190.535 216.113 190.521C216.177 190.507 216.241 190.496 216.305 190.486L216.163 190.508C216.272 190.439 216.624 190.499 216.742 190.508C217.076 190.506 217.396 190.373 217.633 190.136C217.869 189.9 218.003 189.58 218.004 189.245C217.997 188.913 217.862 188.597 217.628 188.362C217.394 188.127 217.078 187.991 216.746 187.982Z"
              fill="#211715"/>
        <path d="M211.193 197.257C210.42 197.209 209.653 197.42 209.012 197.855C208.37 198.29 207.892 198.926 207.651 199.663C207.456 200.31 207.443 200.998 207.614 201.652C207.785 202.306 208.134 202.9 208.621 203.369C209.154 203.856 209.821 204.172 210.536 204.277C211.251 204.381 211.98 204.268 212.63 203.953C213.27 203.645 213.798 203.147 214.143 202.528C214.489 201.908 214.634 201.197 214.561 200.491C214.489 199.624 214.099 198.813 213.466 198.216C212.834 197.655 212.036 197.318 211.193 197.257C211.027 197.256 210.863 197.289 210.71 197.352C210.556 197.415 210.417 197.508 210.299 197.625C210.064 197.864 209.932 198.185 209.931 198.52C209.939 198.852 210.075 199.168 210.31 199.403C210.545 199.638 210.861 199.774 211.193 199.783C211.236 199.786 211.278 199.791 211.32 199.797L210.984 199.752C211.089 199.767 211.192 199.788 211.294 199.816C211.356 199.833 211.415 199.854 211.476 199.874C211.646 199.929 211.356 199.837 211.351 199.818C211.361 199.855 211.585 199.94 211.63 199.968C211.735 200.035 211.805 200.147 211.582 199.919C211.619 199.957 211.665 199.987 211.704 200.024C211.743 200.061 211.782 200.098 211.819 200.137C211.855 200.176 211.976 200.332 211.846 200.158C211.715 199.984 211.843 200.158 211.863 200.19C211.893 200.237 211.922 200.285 211.948 200.333C211.966 200.366 212.026 200.452 212.024 200.485C212.029 200.416 211.919 200.206 211.989 200.423C212.03 200.556 212.061 200.691 212.08 200.828L212.035 200.492C212.059 200.692 212.06 200.895 212.039 201.095L212.084 200.759C212.068 200.884 212.043 201.007 212.01 201.128C211.99 201.196 211.951 201.273 211.937 201.342C211.948 201.29 212.055 201.099 211.972 201.247C211.919 201.344 211.854 201.434 211.797 201.528C211.97 201.243 211.909 201.386 211.829 201.471C211.792 201.509 211.753 201.546 211.714 201.582C211.619 201.666 211.551 201.642 211.797 201.524C211.751 201.546 211.709 201.585 211.665 201.612C211.622 201.638 211.575 201.664 211.528 201.69C211.481 201.716 211.299 201.795 211.506 201.707C211.713 201.619 211.516 201.699 211.478 201.712C211.425 201.729 211.376 201.744 211.324 201.757C211.208 201.787 211.091 201.81 210.973 201.825L211.309 201.78C211.112 201.804 210.914 201.806 210.717 201.785L211.053 201.83C210.928 201.812 210.805 201.785 210.685 201.747C210.632 201.732 210.452 201.657 210.661 201.747C210.871 201.837 210.693 201.758 210.646 201.734C210.548 201.663 210.445 201.598 210.338 201.541C210.398 201.56 210.574 201.751 210.43 201.603C210.388 201.56 210.342 201.52 210.301 201.476C210.26 201.432 210.237 201.395 210.201 201.362C210.421 201.56 210.33 201.538 210.253 201.423C210.191 201.329 210.141 201.23 210.087 201.131C210.016 200.998 210.198 201.429 210.129 201.236C210.108 201.177 210.087 201.119 210.07 201.059C210.035 200.938 210.009 200.815 209.992 200.691L210.037 201.026C210.012 200.82 210.012 200.612 210.037 200.406L209.992 200.742C210.007 200.638 210.028 200.536 210.056 200.435C210.072 200.378 210.092 200.324 210.108 200.269C210.164 200.088 210.058 200.368 210.062 200.378C210.044 200.328 210.207 200.119 210.235 200.077C210.329 199.93 210.173 200.139 210.164 200.168C210.178 200.124 210.251 200.073 210.283 200.041C210.314 200.01 210.354 199.979 210.388 199.946C210.493 199.845 210.128 200.114 210.341 199.986C210.435 199.929 210.531 199.88 210.626 199.825C210.758 199.75 210.379 199.908 210.521 199.869C210.578 199.853 210.633 199.83 210.69 199.816C210.804 199.786 210.919 199.763 211.036 199.748L210.7 199.793C210.863 199.776 211.027 199.773 211.19 199.785C211.525 199.783 211.845 199.649 212.081 199.413C212.318 199.176 212.451 198.856 212.453 198.522C212.446 198.19 212.311 197.873 212.076 197.637C211.842 197.402 211.526 197.266 211.193 197.257Z"
              fill="#211715"/>
        <path d="M193.191 220.223C192.928 218.504 192.786 216.769 192.765 215.03C192.666 212.932 192.585 210.832 192.506 208.734C192.3 203.182 192.117 197.629 191.958 192.076C191.816 187.315 191.679 182.552 191.578 177.793C191.563 177.074 191.548 176.355 191.538 175.635C191.526 174.804 191.486 173.849 191.775 173.243C191.883 172.995 192.04 172.772 192.236 172.586C192.432 172.401 192.664 172.256 192.916 172.161C193.617 171.912 194.35 171.766 195.093 171.729C197.424 171.497 199.758 171.297 202.096 171.15C205.959 170.904 209.836 170.827 213.706 170.79C215.689 170.771 217.673 170.771 219.655 170.843C220.887 170.886 222.173 171.101 222.56 172.292C222.7 172.962 222.753 173.648 222.718 174.331C222.747 174.998 222.775 175.663 222.8 176.328C222.88 178.347 222.956 180.365 223.027 182.384C223.222 187.805 223.405 193.226 223.576 198.649C223.728 203.466 223.879 208.284 223.981 213.102C224.009 214.391 224.043 215.681 224.029 216.97C224.05 218.019 223.946 219.067 223.72 220.091C223.641 220.434 223.526 220.768 223.377 221.087C223.325 221.196 223.263 221.303 223.198 221.406C223.159 221.469 222.944 221.769 223.05 221.637C222.043 222.9 220.43 223.18 218.911 223.465C214.854 224.144 210.747 224.474 206.635 224.451C204.554 224.479 202.469 224.465 200.392 224.317C198.88 224.211 197.208 224.111 195.79 223.499C195.107 223.232 194.506 222.788 194.05 222.213C193.594 221.638 193.298 220.952 193.193 220.226C192.852 218.637 190.416 219.31 190.758 220.897C190.935 221.823 191.308 222.699 191.852 223.469C192.395 224.238 193.097 224.883 193.91 225.359C195.478 226.288 197.33 226.538 199.113 226.727C203.562 227.118 208.036 227.127 212.486 226.754C214.538 226.617 216.59 226.401 218.62 226.067C220.514 225.754 222.461 225.422 224.012 224.203C226.426 222.306 226.572 219.033 226.555 216.195C226.531 212.044 226.381 207.891 226.258 203.742C226.087 197.98 225.899 192.218 225.696 186.456C225.555 182.377 225.419 178.297 225.238 174.219C225.277 173.292 225.179 172.364 224.946 171.466C224.642 170.656 224.122 169.946 223.442 169.412C222.762 168.877 221.949 168.539 221.091 168.435C219.108 168.127 217.006 168.248 215.005 168.254C212.967 168.262 210.929 168.3 208.892 168.35C204.538 168.458 200.197 168.718 195.867 169.128C193.958 169.312 191.948 169.411 190.471 170.796C189.314 171.884 188.991 173.448 189.006 174.975C189.046 178.943 189.173 182.911 189.284 186.877C189.447 192.735 189.629 198.595 189.83 204.455C189.977 208.708 190.093 212.967 190.356 217.215C190.412 218.448 190.546 219.677 190.757 220.894C190.849 221.215 191.063 221.488 191.354 221.653C191.644 221.818 191.988 221.862 192.311 221.776C192.63 221.681 192.899 221.466 193.063 221.177C193.227 220.887 193.273 220.546 193.191 220.223Z"
              fill="#211715"/>
        <path d="M197.105 220.107C199.913 220.729 202.88 220.765 205.743 220.768C209.057 220.79 212.37 220.615 215.663 220.245C217.038 220.118 218.4 219.879 219.736 219.53C221.294 219.079 220.63 216.641 219.064 217.095C216.591 217.811 214.192 217.915 211.559 218.072C208.309 218.282 205.049 218.304 201.797 218.139C201.011 218.096 200.225 218.034 199.443 217.947L199.248 217.924C199.22 217.921 198.894 217.879 199.042 217.899C199.107 217.908 198.753 217.855 198.673 217.843C198.372 217.794 198.072 217.738 197.774 217.672C196.19 217.321 195.514 219.756 197.103 220.107H197.105Z"
              fill="#211715"/>
        <path d="M218.975 180.515C211.252 180.167 203.514 180.472 195.842 181.429C195.511 181.439 195.195 181.575 194.961 181.81C194.726 182.045 194.59 182.36 194.58 182.692C194.582 183.026 194.715 183.346 194.952 183.582C195.188 183.819 195.508 183.952 195.842 183.954C203.514 182.998 211.252 182.692 218.975 183.04C220.6 183.108 220.597 180.582 218.975 180.515Z"
              fill="#211715"/>
        <path d="M185.519 216.654C183.668 220.851 181.138 225.107 177.552 228.052C175.918 229.427 174.002 230.426 171.939 230.978C169.876 231.53 167.718 231.622 165.616 231.247C162.254 230.573 159.739 228.443 158.172 225.422C156.104 221.437 155.593 217.098 155.952 212.674C156.407 208.126 157.25 203.626 158.472 199.222C159.524 195.142 160.653 191.07 161.859 187.033C162.911 183.518 164.089 180.046 165.355 176.602C166.131 174.49 166.93 172.387 167.732 170.284C168.57 168.091 169.359 165.923 170.754 164.009C171.317 163.164 172.034 162.434 172.869 161.857C173.783 161.334 174.744 160.899 175.74 160.557C177.908 159.712 179.985 158.627 182.107 157.669C186.522 155.674 190.986 153.794 195.457 151.928C196.527 151.481 197.598 151.035 198.67 150.589C198.987 150.491 199.255 150.275 199.419 149.987C199.583 149.698 199.63 149.358 199.552 149.035C199.461 148.714 199.247 148.44 198.957 148.275C198.666 148.11 198.322 148.066 197.999 148.154C193.283 150.119 188.563 152.078 183.884 154.131C181.59 155.137 179.306 156.165 177.043 157.242C174.991 158.22 172.649 158.795 170.843 160.213C169.023 161.642 167.663 163.857 166.738 165.949C165.702 168.301 164.857 170.75 163.95 173.157C162.557 176.857 161.214 180.577 160.036 184.349C158.751 188.47 157.624 192.642 156.498 196.808C155.189 201.401 154.224 206.085 153.611 210.821C153.049 215.667 153.269 220.406 155.185 224.947C156.736 228.621 159.209 231.678 163.016 233.13C167.2 234.726 172.136 234.101 176.038 232.053C180.47 229.728 183.639 225.598 186.028 221.3C186.638 220.203 187.195 219.079 187.7 217.929C187.859 217.637 187.9 217.296 187.816 216.975C187.732 216.654 187.528 216.377 187.247 216.201C186.957 216.035 186.614 215.989 186.29 216.073C185.967 216.158 185.69 216.367 185.519 216.654Z"
              fill="#211715"/>
        <path d="M217.788 126.05C219.445 126.906 221.291 127.332 223.155 127.289C225.065 127.277 227.01 126.907 228.541 125.714C228.776 125.476 228.908 125.155 228.908 124.821C228.908 124.487 228.776 124.166 228.541 123.928C228.3 123.698 227.98 123.569 227.647 123.569C227.314 123.569 226.993 123.698 226.752 123.928C227.126 123.636 226.805 123.882 226.708 123.944C226.598 124.014 226.485 124.078 226.371 124.138C226.291 124.18 225.897 124.345 226.213 124.225C226.059 124.284 225.906 124.343 225.749 124.394C224.854 124.679 223.917 124.803 222.979 124.762C222.085 124.787 221.193 124.667 220.337 124.406C220.167 124.354 220.001 124.295 219.833 124.237C219.781 124.218 219.728 124.19 219.671 124.174C219.982 124.265 219.761 124.214 219.679 124.174C219.468 124.076 219.266 123.974 219.062 123.866C218.771 123.704 218.429 123.661 218.107 123.745C217.785 123.83 217.508 124.035 217.334 124.319C217.169 124.609 217.123 124.952 217.208 125.275C217.293 125.598 217.501 125.875 217.787 126.047L217.788 126.05Z"
              fill="#211715"/>
        <path d="M222.582 113.317C222.833 114.222 223.034 115.141 223.183 116.068L223.138 115.732C223.156 115.858 223.16 115.985 223.148 116.112L223.194 115.776C223.185 115.834 223.171 115.891 223.152 115.947L223.279 115.645C223.263 115.683 223.242 115.72 223.219 115.755L223.416 115.499C223.39 115.532 223.36 115.562 223.326 115.588L223.582 115.39C223.512 115.434 223.439 115.472 223.364 115.506L223.666 115.378C223.548 115.428 223.424 115.464 223.298 115.484L223.634 115.439C223.519 115.452 223.403 115.452 223.289 115.439L223.625 115.484C223.495 115.466 223.367 115.434 223.237 115.417C222.908 115.34 222.562 115.385 222.264 115.544C221.975 115.713 221.765 115.99 221.68 116.314C221.595 116.638 221.642 116.982 221.811 117.272C221.891 117.414 221.999 117.539 222.129 117.638C222.259 117.738 222.407 117.81 222.566 117.85C222.848 117.889 223.123 117.961 223.408 117.974C223.834 117.976 224.255 117.877 224.636 117.684C224.874 117.577 225.085 117.419 225.254 117.219C225.423 117.02 225.544 116.785 225.61 116.533C225.696 116.118 225.692 115.69 225.597 115.277C225.447 114.391 225.243 113.513 225.014 112.646C224.97 112.486 224.895 112.336 224.793 112.205C224.691 112.075 224.565 111.965 224.42 111.883C224.276 111.801 224.117 111.749 223.952 111.728C223.788 111.708 223.621 111.72 223.461 111.764C223.301 111.808 223.151 111.883 223.021 111.985C222.89 112.087 222.78 112.214 222.698 112.358C222.616 112.502 222.564 112.661 222.543 112.826C222.523 112.99 222.535 113.157 222.579 113.317H222.582Z"
              fill="#211715"/>
        <path d="M207.898 105.567C207.439 107.059 207.74 110.493 210.566 110.785C214.302 110.763 214.502 106.612 213.243 104.66C212.214 103.063 209.185 102.398 207.898 105.567Z"
              fill="#211715"/>
        <path d="M237.825 105.567C238.285 107.059 237.986 110.493 235.158 110.785C231.422 110.763 231.222 106.612 232.48 104.66C233.51 103.063 236.538 102.398 237.825 105.567Z"
              fill="#211715"/>
    </g>
    <defs>
        <linearGradient id="paint0_linear_33_72" x1="210" y1="29.5" x2="327.5" y2="352.5"
                        gradientUnits="userSpaceOnUse">
            <stop stop-color="#1400FC"/>
            <stop offset="1" stop-color="#820EF6" stop-opacity="0"/>
            <stop offset="1" stop-color="#7F00FF" stop-opacity="0"/>
        </linearGradient>
        <clipPath id="clip0_33_72">
            <rect width="190" height="190" fill="white" transform="translate(126 57)"/>
        </clipPath>
    </defs>
</svg>
