<svg width="354" height="310" viewBox="0 0 354 310" fill="none" xmlns="http://www.w3.org/2000/svg">
<path d="M239.562 28.0743L238.331 27.7226C234.504 26.6291 230.543 26.0743 226.562 26.0743L209.562 28.0743C201.256 30.0678 193.204 33.0031 185.564 36.8232L173.062 43.0743L161.354 51.109C152.184 57.4022 143.691 64.6293 136.012 72.6744C129.723 79.2624 124.005 86.3725 118.92 93.928L115.355 99.2245C111.171 105.441 107.637 112.072 104.81 119.012L102.311 125.145C99.497 132.052 97.8247 139.37 97.3595 146.814C96.8323 155.249 97.8634 163.708 100.401 171.769L101.523 175.333C103.872 182.795 107.195 189.913 111.407 196.505L111.762 197.061C114.955 202.058 118.614 206.743 122.691 211.05L132.846 221.78C139.647 228.966 146.984 235.625 154.793 241.699C164.948 249.596 175.857 256.472 187.363 262.225L189.062 263.074L198.96 266.937C205.967 269.671 213.421 271.074 220.942 271.074C224.681 271.074 228.411 270.728 232.085 270.039L242.562 268.074C253.21 264.747 263.558 260.529 273.499 255.465L285.062 249.574L304.562 237.574L321.308 224.549C325.139 221.57 328.748 218.315 332.105 214.812L333.5 213.356C336.867 209.842 339.9 206.023 342.558 201.947L343.114 201.094C345.076 198.086 346.789 194.922 348.235 191.635L349.435 188.909C350.847 185.698 351.854 182.324 352.43 178.864C353.18 174.367 353.195 169.779 352.474 165.277L352.306 164.223C351.811 161.131 351.019 158.094 349.941 155.155L346.062 144.574L333.062 118.074L311.562 86.0743L293.062 63.5743L285.062 55.0743L277.062 47.0743C272.406 43.0837 267.374 39.555 262.036 36.5377L258.562 34.5743L250.062 31.0743L239.562 28.0743Z" fill="url(#paint0_linear_33_11)"/>
<path d="M121.436 26.1121L150.784 29.2645L181.062 35.8168L184.562 36.5741L170.871 45.2154C160.687 51.6431 151.126 59.0074 142.311 67.2124L138.92 70.3683C133.69 75.237 128.853 80.5127 124.457 86.1459C118.213 94.1451 112.891 102.822 108.589 112.012L104.062 121.683L102.378 126.974C98.8808 137.967 97.9518 149.615 99.663 161.023C100.92 169.403 103.581 177.511 107.533 185.007L109.698 189.113C113.922 197.125 119.187 204.542 125.355 211.173L136.062 222.683C147.047 232.669 158.764 241.818 171.116 250.052L181.062 256.683L191.562 262.293L199.938 266.875C200.02 266.92 200.094 266.978 200.158 267.047C200.675 267.61 200.253 268.517 199.489 268.483L165.7 267C164.832 266.962 163.97 266.848 163.122 266.659L154.367 264.706C147.171 263.101 140.142 260.817 133.377 257.886L121.811 252.876C112.732 248.942 103.966 244.325 95.5867 239.064C84.6924 232.224 74.5004 224.324 65.1592 215.479L63.7798 214.173L56.7645 206.193C51.799 200.544 47.9308 194.019 45.3586 186.952C44.0799 183.439 43.1299 179.815 42.5206 176.126L40.7833 165.61C40.2683 154.466 40.6924 143.299 42.0511 132.226L43.6317 119.345L48.2386 96.9172L54.7505 76.7261C56.24 72.1073 58.0641 67.6032 60.2082 63.2495L61.099 61.4407C63.2489 57.0751 65.8009 52.9193 68.722 49.0273L69.3329 48.2132C71.4888 45.3406 73.8759 42.6491 76.4704 40.1654L78.6217 38.1061C81.1555 35.6805 83.9821 33.5808 87.0361 31.8556C91.0054 29.6133 95.3122 28.0299 99.7887 27.1671L100.837 26.965C103.912 26.3724 107.036 26.0778 110.167 26.0853L121.436 26.1121Z" fill="#FCF3FF"/>
<defs>
<linearGradient id="paint0_linear_33_11" x1="209.562" y1="28.5743" x2="327.062" y2="351.574" gradientUnits="userSpaceOnUse">
<stop stop-color="#1400FC"/>
<stop offset="1" stop-color="#820EF6" stop-opacity="0"/>
<stop offset="1" stop-color="#7F00FF" stop-opacity="0"/>
</linearGradient>
</defs>
</svg>
