<svg width="700" height="185" viewBox="0 0 446 185" fill="none" xmlns="http://www.w3.org/2000/svg">
    <path d="M274.979 32.4823C282.087 24.4189 286.223 20.2538 293.831 13.3666C303.691 4.74915 316.342 0 329.437 0H445.407L444.514 174.257C444.505 176.038 444.667 178.24 443.407 179.5C442.907 180 441.407 181 440.407 182C437.264 185.143 432.123 185 427.678 185H424.407C420.093 185 415.876 183.938 411.583 183.51C411.514 183.504 411.455 183.5 411.407 183.5C410.607 183.5 407.741 182.5 406.407 182L406.333 181.979C403.424 181.163 400.626 179.994 398 178.5L389.153 174.7L370.528 167.801L355.007 162.052L354.266 161.838C345.689 159.35 336.922 157.571 328.053 156.519L315.409 155.153C309.158 155.153 302.92 155.646 296.71 156.37C296.189 156.431 295.725 156.482 295.346 156.519C289.291 157.113 279.825 155.153 279.825 155.153L276.482 154.413C270.322 153.047 264.423 150.695 259.013 147.446C257.046 146.265 255.229 144.848 253.604 143.229L250.059 139.695C249.009 138.649 248.067 137.499 247.248 136.264C244.405 131.975 242.299 127.241 241.019 122.257L240.979 122.099C240.329 119.568 240 116.965 240 114.352V111.371C240 104.034 240.918 96.7249 242.733 89.6154L243.169 87.906C243.832 85.3116 244.695 82.7727 245.751 80.3122L249.994 70.4263L261.351 50.8794C261.351 50.8794 267.871 40.5458 274.979 32.4823Z"
          fill="url(#paint0_linear_25_17)" fill-opacity="0.5"/>
    <rect y="1" width="100" height="184" fill="white"/>
    <defs>
        <linearGradient id="paint0_linear_25_17" x1="312.5" y1="8" x2="445" y2="185" gradientUnits="userSpaceOnUse">
            <stop stop-color="#3300FF"/>
            <stop offset="1" stop-color="#DB00FF"/>
        </linearGradient>
    </defs>
</svg>
