<svg width="70" height="70" viewBox="0 0 1621 568" fill="none" xmlns="http://www.w3.org/2000/svg">
<path d="M67.25 390.5L201.75 236.667L291.417 378.667L470.75 153.833" stroke="black" stroke-width="66.6667" stroke-linecap="round" stroke-linejoin="round"/>
<path d="M564.42 410V191.818H640.699C655.898 191.818 668.433 194.446 678.305 199.702C688.178 204.886 695.528 211.882 700.358 220.689C705.188 229.425 707.602 239.119 707.602 249.773C707.602 259.148 705.933 266.889 702.595 272.997C699.328 279.105 694.996 283.935 689.598 287.486C684.271 291.037 678.483 293.665 672.233 295.369V297.5C678.909 297.926 685.621 300.27 692.368 304.531C699.115 308.793 704.761 314.901 709.307 322.855C713.852 330.81 716.125 340.54 716.125 352.045C716.125 362.983 713.639 372.82 708.668 381.555C703.696 390.291 695.848 397.216 685.124 402.33C674.399 407.443 660.443 410 643.256 410H564.42ZM590.841 386.562H643.256C660.514 386.562 672.766 383.224 680.01 376.548C687.325 369.801 690.983 361.634 690.983 352.045C690.983 344.659 689.101 337.841 685.337 331.591C681.572 325.27 676.21 320.227 669.25 316.463C662.29 312.628 654.051 310.71 644.534 310.71H590.841V386.562ZM590.841 287.699H639.847C647.801 287.699 654.974 286.136 661.366 283.011C667.83 279.886 672.943 275.483 676.707 269.801C680.543 264.119 682.46 257.443 682.46 249.773C682.46 240.185 679.122 232.053 672.446 225.376C665.77 218.629 655.188 215.256 640.699 215.256H590.841V287.699ZM759.538 410V191.818H833.259C850.305 191.818 864.296 194.73 875.234 200.554C886.171 206.307 894.268 214.226 899.523 224.311C904.779 234.396 907.407 245.866 907.407 258.722C907.407 271.577 904.779 282.976 899.523 292.919C894.268 302.862 886.207 310.675 875.34 316.357C864.474 321.967 850.589 324.773 833.685 324.773H774.026V300.909H832.833C844.481 300.909 853.856 299.205 860.958 295.795C868.131 292.386 873.316 287.557 876.512 281.307C879.779 274.986 881.413 267.457 881.413 258.722C881.413 249.986 879.779 242.351 876.512 235.817C873.245 229.283 868.025 224.24 860.852 220.689C853.678 217.067 844.197 215.256 832.407 215.256H785.958V410H759.538ZM862.237 311.989L915.93 410H885.248L832.407 311.989H862.237ZM951.432 410V191.818H1083.11V215.256H977.853V288.977H1076.29V312.415H977.853V386.562H1084.81V410H951.432ZM1130.73 410V191.818H1262.41V215.256H1157.15V288.977H1255.59V312.415H1157.15V386.562H1264.11V410H1130.73ZM1377.36 410H1310.03V191.818H1380.34C1401.5 191.818 1419.61 196.186 1434.67 204.922C1449.73 213.587 1461.27 226.051 1469.29 242.315C1477.32 258.509 1481.33 277.898 1481.33 300.483C1481.33 323.21 1477.28 342.777 1469.19 359.183C1461.09 375.518 1449.3 388.089 1433.82 396.896C1418.34 405.632 1399.51 410 1377.36 410ZM1336.45 386.562H1375.65C1393.69 386.562 1408.64 383.082 1420.5 376.122C1432.36 369.162 1441.2 359.254 1447.03 346.399C1452.85 333.544 1455.76 318.239 1455.76 300.483C1455.76 282.869 1452.89 267.706 1447.14 254.993C1441.38 242.209 1432.79 232.408 1421.35 225.589C1409.92 218.7 1395.68 215.256 1378.63 215.256H1336.45V386.562Z" fill="black"/>
</svg>
