<?xml version="1.0" encoding="iso-8859-1"?>
<!-- Uploaded to: SVG Repo, www.svgrepo.com, Generator: SVG Repo Mixer Tools -->
<svg height="70px" width="70px" version="1.1" id="Layer_1" xmlns="http://www.w3.org/2000/svg" xmlns:xlink="http://www.w3.org/1999/xlink"
	 viewBox="0 0 512 512" xml:space="preserve">
<g transform="translate(1 1)">
	<path style="fill:#FFE100;" d="M400.067,169.667c0,80.213-64.853,145.067-145.067,145.067S109.933,249.88,109.933,169.667
		S174.787,24.6,255,24.6S400.067,89.453,400.067,169.667"/>
	<path style="fill:#FFA800;" d="M255,24.6c-4.267,0-8.533,0-12.8,0.853c74.24,5.973,132.267,68.267,132.267,144.213
		S316.44,307.907,242.2,313.88c4.267,0,8.533,0.853,12.8,0.853c80.213,0,145.067-64.853,145.067-145.067S335.213,24.6,255,24.6"/>
	<path style="fill:#FFE100;" d="M502.467,340.333c0,80.213-64.853,145.067-145.067,145.067s-145.067-64.853-145.067-145.067
		S277.187,195.267,357.4,195.267S502.467,260.12,502.467,340.333"/>
	<path style="fill:#FFA800;" d="M357.4,195.267c-4.267,0-8.533,0-12.8,0.853c74.24,5.973,132.267,68.267,132.267,144.213
		S418.84,478.573,344.6,484.547c4.267,0,8.533,0.853,12.8,0.853c80.213,0,145.067-64.853,145.067-145.067
		S437.613,195.267,357.4,195.267"/>
	<path style="fill:#FFFFFF;" d="M255,24.6c4.267,0,8.533,0,12.8,0.853c-74.24,5.973-132.267,68.267-132.267,144.213
		S193.56,307.907,267.8,313.88c-4.267,0.853-8.533,0.853-12.8,0.853c-80.213,0-145.067-64.853-145.067-145.067
		S174.787,24.6,255,24.6"/>
	<path style="fill:#FFE100;" d="M297.667,340.333c0,80.213-64.853,145.067-145.067,145.067S7.533,420.547,7.533,340.333
		S72.387,195.267,152.6,195.267S297.667,260.12,297.667,340.333"/>
	<path style="fill:#FFFFFF;" d="M152.6,195.267c4.267,0,8.533,0,12.8,0.853c-74.24,5.973-132.267,68.267-132.267,144.213
		S91.16,478.573,165.4,484.547c-4.267,0.853-8.533,0.853-12.8,0.853c-80.213,0-145.067-64.853-145.067-145.067
		S72.387,195.267,152.6,195.267"/>
	<path d="M152.6,493.933c-84.48,0-153.6-69.12-153.6-153.6s69.12-153.6,153.6-153.6s153.6,69.12,153.6,153.6
		S237.08,493.933,152.6,493.933z M152.6,203.8c-75.093,0-136.533,61.44-136.533,136.533S77.507,476.867,152.6,476.867
		s136.533-61.44,136.533-136.533S227.693,203.8,152.6,203.8z"/>
	<path d="M255,323.267c-84.48,0-153.6-69.12-153.6-153.6s69.12-153.6,153.6-153.6s153.6,69.12,153.6,153.6
		S339.48,323.267,255,323.267z M255,33.133c-75.093,0-136.533,61.44-136.533,136.533S179.907,306.2,255,306.2
		s136.533-61.44,136.533-136.533S330.093,33.133,255,33.133z"/>
	<path d="M357.4,493.933c-84.48,0-153.6-69.12-153.6-153.6s69.12-153.6,153.6-153.6s153.6,69.12,153.6,153.6
		S441.88,493.933,357.4,493.933z M357.4,203.8c-75.093,0-136.533,61.44-136.533,136.533s61.44,136.533,136.533,136.533
		s136.533-61.44,136.533-136.533S432.493,203.8,357.4,203.8z"/>
</g>
</svg>