<svg width="354" height="310" viewBox="0 0 354 310" fill="none" xmlns="http://www.w3.org/2000/svg">
<path d="M239.562 28.0743L238.331 27.7226C234.504 26.6291 230.543 26.0743 226.562 26.0743L209.562 28.0743C201.256 30.0678 193.204 33.0031 185.564 36.8232L173.062 43.0743L161.354 51.109C152.184 57.4022 143.691 64.6293 136.012 72.6744C129.723 79.2624 124.005 86.3725 118.92 93.928L115.355 99.2245C111.171 105.441 107.637 112.072 104.81 119.012L102.311 125.145C99.497 132.052 97.8247 139.37 97.3595 146.814C96.8323 155.249 97.8634 163.708 100.401 171.769L101.523 175.333C103.872 182.795 107.195 189.913 111.407 196.505L111.762 197.061C114.955 202.058 118.614 206.743 122.691 211.05L132.846 221.78C139.647 228.966 146.984 235.625 154.793 241.699C164.948 249.596 175.857 256.472 187.363 262.225L189.062 263.074L198.96 266.937C205.967 269.671 213.421 271.074 220.942 271.074C224.681 271.074 228.411 270.728 232.085 270.039L242.562 268.074C253.21 264.747 263.558 260.529 273.499 255.465L285.062 249.574L304.562 237.574L321.308 224.549C325.139 221.57 328.748 218.315 332.105 214.812L333.5 213.356C336.867 209.842 339.9 206.023 342.558 201.947L343.114 201.094C345.076 198.086 346.789 194.922 348.235 191.635L349.435 188.909C350.847 185.698 351.854 182.324 352.43 178.864C353.18 174.367 353.195 169.779 352.474 165.277L352.306 164.223C351.811 161.131 351.019 158.094 349.941 155.155L346.062 144.574L333.062 118.074L311.562 86.0743L293.062 63.5743L285.062 55.0743L277.062 47.0743C272.406 43.0837 267.374 39.555 262.036 36.5377L258.562 34.5743L250.062 31.0743L239.562 28.0743Z" fill="url(#paint0_linear_38_122)"/>
<path d="M121.436 26.1121L150.784 29.2645L181.062 35.8168L184.562 36.5741L170.871 45.2154C160.687 51.6431 151.126 59.0074 142.311 67.2124L138.92 70.3683C133.69 75.237 128.853 80.5127 124.457 86.1459C118.213 94.1451 112.891 102.822 108.589 112.012L104.062 121.683L102.378 126.974C98.8808 137.967 97.9518 149.615 99.663 161.023C100.92 169.403 103.581 177.511 107.533 185.007L109.698 189.113C113.922 197.125 119.187 204.542 125.355 211.173L136.062 222.683C147.047 232.669 158.764 241.818 171.116 250.052L181.062 256.683L191.562 262.293L199.938 266.875C200.02 266.92 200.094 266.978 200.158 267.047C200.675 267.61 200.253 268.517 199.489 268.483L165.7 267C164.832 266.962 163.97 266.848 163.122 266.659L154.367 264.706C147.171 263.101 140.142 260.817 133.377 257.886L121.811 252.876C112.732 248.942 103.966 244.325 95.5867 239.064C84.6924 232.224 74.5004 224.324 65.1592 215.479L63.7798 214.173L56.7645 206.193C51.799 200.544 47.9308 194.019 45.3586 186.952C44.0799 183.439 43.1299 179.815 42.5206 176.126L40.7833 165.61C40.2683 154.466 40.6924 143.299 42.0511 132.226L43.6317 119.345L48.2386 96.9172L54.7505 76.7261C56.24 72.1073 58.0641 67.6032 60.2082 63.2495L61.099 61.4407C63.2489 57.0751 65.8009 52.9193 68.722 49.0273L69.3329 48.2132C71.4888 45.3406 73.8759 42.6491 76.4704 40.1654L78.6217 38.1061C81.1555 35.6805 83.9821 33.5808 87.0361 31.8556C91.0054 29.6133 95.3122 28.0299 99.7887 27.1671L100.837 26.965C103.912 26.3724 107.036 26.0778 110.167 26.0853L121.436 26.1121Z" fill="#FCF3FF"/>
<g clip-path="url(#clip0_38_122)">
<path d="M225.973 145.021C225.129 144.423 214.003 135.647 213.46 135.208C213.46 135.208 213.46 134.483 213.46 133.55C210.828 131.894 208.484 129.82 206.521 127.408C203.797 124.117 201.75 120.32 200.499 116.235C199.82 116.363 199.121 116.338 198.452 116.163C197.783 115.988 197.162 115.667 196.632 115.223C194.341 113.348 193.39 110.734 192.81 109.027C191.991 106.613 191.942 102.715 193.158 100.597C193.52 99.9704 194.045 99.4539 194.677 99.1025C195.309 98.751 196.025 98.5778 196.748 98.6014C197.317 98.5763 197.885 98.6641 198.42 98.8598C198.955 99.0555 199.445 99.3552 199.863 99.7416C199.863 99.7416 196.299 74.5566 226.952 74.5566C257.605 74.5566 254.046 99.7398 254.046 99.7398C254.465 99.3535 254.955 99.0538 255.49 98.8582C256.024 98.6625 256.592 98.5746 257.161 98.5997C257.884 98.5764 258.6 98.7497 259.232 99.1011C259.864 99.4525 260.389 99.9689 260.751 100.595C261.972 102.712 261.92 106.612 261.099 109.025C260.52 110.734 259.568 113.348 257.277 115.221C256.773 115.64 256.187 115.951 255.557 116.133C254.926 116.315 254.265 116.364 253.615 116.278L253.363 116.236C252.928 117.501 252.386 118.626 252.204 119.182C251.317 121.592 246.558 129.821 240.45 133.484C240.45 134.451 240.45 135.208 240.45 135.208C239.904 135.65 228.776 144.423 227.933 145.021H225.973Z" fill="white"/>
<path d="M226.33 202.127C222.465 192.588 221.47 189.439 218.448 180.16C214.37 167.636 210.58 153.863 207.678 140.982C205.788 142.206 203.968 143.534 202.226 144.961C194.467 147.344 188.382 149.713 181.394 154.147C178.662 155.911 176.341 158.243 174.59 160.983C172.447 164.29 170.82 168.755 169.909 172.613C168.857 177.071 168.367 179.553 167.379 185.494C165.542 196.27 164.329 207.144 163.748 218.06C163.463 222.692 163.909 227.672 165.649 231.962C167.388 236.252 171.754 240.3 176.098 241.632C179.24 242.666 182.647 242.549 185.711 241.304C186.547 241.304 187.026 241.304 187.026 241.304H263.78C267.181 242.796 271.005 243.015 274.554 241.921C278.9 240.624 282.192 236.875 283.935 232.689C285.677 228.504 286.081 223.888 286.243 219.357C286.742 205.387 285.224 192.9 282.093 177.419C281.35 172.858 280.134 168.387 278.465 164.078C277.711 162.006 276.726 160.026 275.529 158.175C273.039 154.494 269.297 151.797 265.282 149.888C261.268 147.979 256.953 146.798 252.665 145.627L252.392 145.553C250.436 143.9 248.377 142.373 246.227 140.981C243.326 153.862 239.537 167.635 235.457 180.159C232.435 189.439 231.441 192.588 227.575 202.127" fill="#B3B3B3"/>
<path d="M217.459 177.078C214.128 166.566 211.031 155.32 208.502 144.549L208.469 143.77C208.048 142.635 208.593 141.062 209.333 140.206C210.589 138.75 212.17 136.645 213.457 135.208C214.003 135.65 225.129 144.423 225.973 145.021H227.936C228.78 144.423 239.907 135.65 240.453 135.208C241.737 136.645 243.321 138.75 244.577 140.206C245.317 141.062 245.861 142.638 245.44 143.77L245.512 144.103C242.719 156.068 239.212 168.643 235.462 180.16C232.284 189.918 231.35 192.899 226.953 203.653C222.565 192.896 221.626 189.917 218.451 180.16C218.117 179.141 217.786 178.114 217.459 177.078Z" fill="white"/>
<path d="M221.393 167.25C222.072 162.427 222.545 158.975 222.539 158.65C222.463 157.468 222.219 156.304 221.814 155.192C221.59 154.173 221.283 153.175 220.896 152.207C220.896 152.207 220.817 152.03 220.701 151.776C222.493 149.36 224.654 146.506 225.97 145.021H227.936C229.259 146.509 231.43 149.378 233.225 151.799L233.203 151.875C232.829 153.413 232.77 154.156 232.45 155.607C232.39 155.899 232.323 156.19 232.248 156.482C232.074 157.12 231.974 157.775 231.949 158.435C231.949 158.806 233.605 171.571 234.83 182.109C232.139 190.371 231.043 193.647 226.955 203.654C222.944 193.823 221.817 190.489 219.228 182.541C219.982 177.195 220.773 171.652 221.393 167.25Z" fill="#3D8DCC"/>
<path d="M231.516 155.305C228.616 155.305 225.716 155.275 222.816 155.274C222.447 155.274 222.094 155.421 221.833 155.681C221.573 155.942 221.426 156.296 221.426 156.664C221.426 157.033 221.573 157.386 221.833 157.647C222.094 157.907 222.447 158.054 222.816 158.054C225.716 158.054 228.616 158.084 231.516 158.085C231.884 158.085 232.238 157.938 232.499 157.678C232.759 157.417 232.906 157.063 232.906 156.695C232.906 156.326 232.759 155.973 232.499 155.712C232.238 155.452 231.884 155.305 231.516 155.305Z" fill="#211715"/>
<path d="M231.859 151.505C231.593 152.619 231.418 153.75 231.183 154.87C230.94 156.036 230.508 157.258 230.555 158.46C230.586 159.256 230.74 160.064 230.837 160.853C231.339 164.92 231.852 168.987 232.35 173.054C232.704 175.941 233.051 178.829 233.389 181.717C233.4 182.082 233.55 182.43 233.808 182.688C234.066 182.946 234.414 183.096 234.779 183.107C235.147 183.105 235.499 182.957 235.759 182.697C236.019 182.437 236.166 182.085 236.169 181.717C235.6 176.85 235.01 171.986 234.397 167.125C234.046 164.305 233.57 161.47 233.351 158.635C233.359 157.808 233.49 156.986 233.738 156.196C234.028 154.884 234.228 153.553 234.54 152.245C234.954 150.508 232.275 149.765 231.859 151.506V151.505Z" fill="#211715"/>
<path d="M220.698 181.961C221.398 177.029 222.098 172.096 222.798 167.164C223.049 165.379 223.296 163.593 223.54 161.807C223.673 160.819 223.857 159.816 223.919 158.82C223.929 157.772 223.765 156.73 223.432 155.737C223.091 154.296 222.644 152.882 222.097 151.506C221.909 151.19 221.604 150.96 221.248 150.867C220.892 150.773 220.514 150.824 220.195 151.007C219.884 151.199 219.658 151.504 219.565 151.858C219.472 152.212 219.519 152.588 219.697 152.908C220.115 154.029 220.455 155.177 220.714 156.344C220.99 157.122 221.135 157.939 221.144 158.763C221.129 159.062 221.08 159.363 221.043 159.659C221.015 159.884 220.986 160.108 220.957 160.332C220.938 160.474 220.919 160.616 220.899 160.758C220.872 160.963 220.856 161.083 220.858 161.068C220.337 164.956 219.776 168.839 219.224 172.723C218.822 175.556 218.419 178.389 218.016 181.223C217.93 181.578 217.983 181.952 218.163 182.269C218.343 182.587 218.637 182.824 218.986 182.932C219.342 183.028 219.72 182.979 220.04 182.798C220.36 182.616 220.596 182.316 220.696 181.961H220.698Z" fill="#211715"/>
<path d="M212.475 134.225C211.677 135.125 210.927 136.065 210.173 137.005C209.429 137.931 208.575 138.817 207.908 139.799C207.367 140.534 207.045 141.407 206.979 142.318C206.913 143.228 207.105 144.139 207.535 144.944C209.176 147.718 211.032 150.36 213.085 152.845C214.244 154.361 215.625 155.693 217.182 156.797C217.502 156.974 217.878 157.021 218.233 156.928C218.587 156.836 218.891 156.61 219.083 156.298C221.668 152.848 224.098 149.239 226.959 146.006C227.104 145.853 227.214 145.67 227.28 145.47C227.345 145.269 227.366 145.057 227.339 144.847C227.312 144.638 227.238 144.438 227.124 144.26C227.01 144.083 226.857 143.934 226.678 143.823C226.507 143.701 226.341 143.572 226.175 143.444L225.974 143.29C225.974 143.29 226.182 143.451 225.959 143.278C225.765 143.127 225.571 142.977 225.38 142.826C224.399 142.063 223.419 141.297 222.442 140.529C220.337 138.877 218.234 137.222 216.134 135.564C215.57 135.119 215.004 134.678 214.445 134.227C214.179 133.977 213.828 133.837 213.463 133.837C213.097 133.837 212.746 133.977 212.48 134.227C212.222 134.489 212.077 134.842 212.077 135.21C212.077 135.578 212.222 135.931 212.48 136.193C216.017 139.046 219.614 141.83 223.199 144.623C223.888 145.16 224.567 145.715 225.278 146.223L224.996 144.041C221.982 147.451 219.415 151.256 216.689 154.896L218.591 154.397C218.105 154.073 217.654 153.7 217.244 153.285C216.678 152.74 216.146 152.161 215.634 151.567C214.549 150.308 213.553 148.977 212.6 147.617C211.819 146.503 211.063 145.369 210.347 144.212C210.144 143.885 209.923 143.558 209.751 143.213C209.732 143.176 209.706 143.14 209.69 143.097C209.806 143.387 209.723 142.999 209.72 142.905C209.72 142.489 209.819 142.08 210.009 141.711C210.464 140.768 211.341 139.967 211.991 139.156C212.795 138.156 213.594 137.15 214.445 136.19C215.622 134.856 213.664 132.883 212.475 134.225Z" fill="#211715"/>
<path d="M217.984 201.837C211.031 189.785 204.159 177.679 197.75 165.328C197.507 164.861 197.265 164.393 197.025 163.926C196.793 163.556 196.594 163.167 196.428 162.763C196.34 162.473 196.397 162.528 196.688 162.216C197.026 161.853 197.368 161.493 197.715 161.137C199.102 159.712 200.544 158.343 201.995 156.983C202.143 156.832 202.255 156.649 202.322 156.448C202.389 156.247 202.41 156.034 202.383 155.824C202.356 155.614 202.281 155.412 202.165 155.235C202.05 155.058 201.895 154.909 201.713 154.8L198.951 153.223L197.695 152.507C197.444 152.364 197.192 152.221 196.942 152.077L196.691 151.933C196.485 151.805 196.504 151.822 196.749 151.985L196.939 152.687C196.858 152.862 196.846 152.891 196.904 152.772C196.937 152.703 196.973 152.635 197.009 152.567C197.071 152.451 197.137 152.335 197.204 152.219C197.345 151.978 197.497 151.744 197.656 151.514C197.997 151.029 198.366 150.565 198.761 150.124C199.737 149.038 200.78 148.015 201.885 147.061C203.927 145.275 206.099 143.643 208.383 142.178L206.337 141.352C210.125 158.153 214.879 174.723 220.575 190.977C221.937 194.857 223.444 198.685 224.988 202.5C225.095 202.849 225.332 203.144 225.65 203.324C225.967 203.505 226.342 203.557 226.697 203.471C227.051 203.371 227.351 203.135 227.533 202.815C227.715 202.495 227.763 202.117 227.668 201.761C221.571 186.706 216.762 171.105 212.633 155.404C211.342 150.496 210.137 145.567 209.018 140.616C208.959 140.412 208.855 140.224 208.713 140.066C208.572 139.908 208.396 139.784 208.199 139.704C208.002 139.624 207.79 139.59 207.578 139.604C207.366 139.618 207.16 139.68 206.976 139.786C203.518 141.951 200.327 144.517 197.469 147.429C196.767 148.163 196.112 148.94 195.508 149.757C194.92 150.454 194.475 151.261 194.197 152.131C193.837 153.73 195.41 154.405 196.541 155.05L200.308 157.2L200.027 155.018C198.676 156.285 197.332 157.56 196.032 158.881C194.758 160.177 193.031 161.595 193.782 163.618C194.49 165.252 195.299 166.841 196.204 168.376C197.033 169.96 197.87 171.541 198.715 173.119C202.202 179.636 205.798 186.095 209.444 192.524C211.476 196.104 213.522 199.675 215.583 203.237C216.476 204.786 218.879 203.388 217.983 201.834L217.984 201.837Z" fill="#211715"/>
<path d="M238.323 203.239C245.625 190.582 252.844 177.864 259.521 164.862C260.016 163.899 260.525 162.963 260.213 161.851C259.93 160.841 259.051 160.097 258.346 159.368C256.898 157.873 255.393 156.441 253.877 155.019L253.596 157.201L257.364 155.051C258.496 154.405 260.069 153.736 259.707 152.132C259.429 151.262 258.984 150.456 258.396 149.758C257.792 148.941 257.138 148.164 256.436 147.43C253.578 144.518 250.387 141.952 246.929 139.787C246.744 139.681 246.538 139.619 246.327 139.605C246.115 139.591 245.902 139.625 245.706 139.705C245.509 139.785 245.333 139.909 245.191 140.067C245.049 140.225 244.945 140.413 244.887 140.617C241.099 157.419 236.345 173.988 230.649 190.243C229.288 194.122 227.78 197.951 226.237 201.766C226.141 202.121 226.189 202.5 226.371 202.82C226.553 203.14 226.854 203.375 227.208 203.475C227.563 203.564 227.938 203.513 228.257 203.332C228.575 203.151 228.811 202.855 228.917 202.505C235.014 187.449 239.823 171.849 243.952 156.148C245.243 151.24 246.448 146.31 247.567 141.36L245.526 142.191C247.809 143.653 249.982 145.282 252.025 147.064C253.105 147.997 254.127 148.996 255.084 150.055C255.484 150.496 255.858 150.96 256.205 151.444C256.366 151.676 256.521 151.908 256.668 152.152C256.75 152.287 256.829 152.426 256.904 152.567L256.975 152.704C257.066 152.89 257.066 152.885 256.975 152.687L257.165 151.985C257.387 151.837 257.43 151.806 257.292 151.891C257.187 151.955 257.08 152.017 256.971 152.077C256.762 152.197 256.553 152.315 256.344 152.435L254.962 153.223L252.199 154.8C252.018 154.909 251.863 155.058 251.747 155.235C251.631 155.412 251.557 155.613 251.53 155.823C251.503 156.034 251.524 156.247 251.591 156.448C251.658 156.649 251.77 156.832 251.918 156.983C253.203 158.188 254.481 159.401 255.721 160.653C256.008 160.942 256.292 161.234 256.575 161.528C256.792 161.754 257.398 162.218 257.501 162.512C257.549 162.65 257.534 162.635 257.426 162.878C257.233 163.313 256.987 163.734 256.769 164.158C255.216 167.169 253.635 170.165 252.027 173.147C248.694 179.339 245.284 185.488 241.796 191.594C239.854 195.015 237.898 198.429 235.93 201.835C235.035 203.387 237.436 204.788 238.33 203.238L238.323 203.239Z" fill="#211715"/>
<path d="M239.467 136.19C240.886 137.791 242.318 139.47 243.592 141.188C243.805 141.48 243.968 141.806 244.072 142.152C244.13 142.331 244.169 142.515 244.188 142.702C244.198 142.822 244.166 143.24 244.188 143.158C244.226 143.024 244.116 143.291 244.077 143.359C243.979 143.529 243.878 143.698 243.776 143.866C242.274 146.37 240.59 148.76 238.738 151.017C238.169 151.703 237.58 152.372 236.949 153.003C236.66 153.293 236.361 153.575 236.051 153.843C235.827 154.052 235.581 154.237 235.319 154.395L237.22 154.893C234.494 151.254 231.928 147.449 228.913 144.038L228.632 146.221C230.216 145.087 231.725 143.83 233.258 142.631C235.408 140.946 237.554 139.257 239.698 137.564C240.277 137.108 240.856 136.655 241.429 136.193C241.688 135.931 241.832 135.578 241.832 135.211C241.832 134.843 241.688 134.49 241.429 134.228C241.164 133.974 240.812 133.832 240.445 133.832C240.078 133.832 239.725 133.974 239.461 134.228C235.968 137.046 232.416 139.794 228.877 142.554L228.203 143.078L227.909 143.305C227.641 143.514 228.109 143.153 227.869 143.337C227.656 143.5 227.444 143.667 227.226 143.824C227.046 143.934 226.894 144.084 226.779 144.261C226.665 144.438 226.592 144.639 226.565 144.848C226.538 145.057 226.558 145.27 226.623 145.47C226.689 145.671 226.799 145.854 226.944 146.007C229.803 149.24 232.233 152.849 234.819 156.299C235.01 156.612 235.315 156.839 235.67 156.931C236.024 157.024 236.401 156.976 236.721 156.797C239.678 154.863 241.87 151.662 243.857 148.806C244.671 147.638 245.46 146.449 246.197 145.23C246.446 144.862 246.649 144.466 246.803 144.049C247.104 142.854 246.957 141.589 246.388 140.495C245.867 139.365 244.883 138.437 244.11 137.476C243.229 136.382 242.36 135.275 241.429 134.226C240.243 132.884 238.283 134.856 239.467 136.19Z" fill="#211715"/>
<path d="M241.042 83.6003C243.847 84.4759 246.257 86.3029 247.859 88.766C249.58 91.2218 250.283 93.6631 251.09 97.1624L254.148 99.7218C254.561 99.3406 255.045 99.0448 255.573 98.8517C256.1 98.6586 256.661 98.5719 257.222 98.5967C257.804 98.6088 258.379 98.7247 258.92 98.9389C260.562 90.9514 260.715 81.8683 257.224 74.139C256.792 73.1819 254.937 68.2477 250.702 64.8695C247.277 62.1369 245.59 61.5688 243.217 61.5937L238.533 59.7326C237.287 58.3572 235.683 57.3549 233.9 56.8374C226.467 54.2519 217.906 55.2768 211.143 58.7401C204.287 62.2947 198.926 68.1832 196.03 75.3429C193.359 82.1758 193.216 91.8461 194.582 99.1381C195.23 98.7926 195.951 98.6079 196.685 98.5996C197.246 98.5748 197.807 98.6615 198.334 98.8546C198.862 99.0477 199.346 99.3435 199.759 99.7247L200.859 100.781C201.063 98.6963 201.584 96.6331 203.204 94.9764C204.261 93.8959 205.758 93.0244 206.389 91.7679C206.923 90.7036 207.01 89.5536 207.568 88.4956C207.983 87.7084 208.576 87.0291 209.3 86.5118C210.306 85.8636 211.42 85.3999 212.589 85.1423C214.264 84.7011 222.444 84.1237 224.648 84.0195C224.648 84.0195 230.775 82.7774 234.098 82.7774C236.439 82.7569 238.772 83.0334 241.042 83.6003Z" fill="#85807F"/>
<path d="M240.675 84.9402C243.216 85.778 245.391 87.4655 246.833 89.7186C248.421 92.0794 249.118 94.7958 249.753 97.5359C250.158 99.2777 252.837 98.5406 252.433 96.797C251.715 93.7008 250.861 90.6011 248.998 87.9774C247.179 85.2788 244.508 83.2667 241.413 82.2615C239.701 81.7276 238.969 84.4098 240.674 84.9414L240.675 84.9402Z" fill="#211715"/>
<path d="M243.217 62.9864C244.132 62.935 245.048 63.0836 245.9 63.4218C247.062 63.9401 248.152 64.6076 249.142 65.4074C251.367 67.1104 253.205 69.265 254.537 71.7296C257.028 76.3024 258.423 81.3913 258.612 86.5952C258.747 90.3042 258.461 94.0167 257.758 97.661C257.67 98.0161 257.721 98.3914 257.902 98.7096C258.082 99.0278 258.378 99.2645 258.728 99.3709C259.083 99.4655 259.462 99.4167 259.781 99.235C260.101 99.0534 260.337 98.7535 260.437 98.3999C261.752 91.3753 261.964 83.9495 259.812 77.0621C258.249 72.0585 255.632 67.0056 251.462 63.7119C248.985 61.7559 246.46 60.1849 243.215 60.2046C241.427 60.2162 241.423 62.9957 243.215 62.9841L243.217 62.9864Z" fill="#211715"/>
<path d="M195.923 98.7699C195.065 94.0393 194.881 89.2111 195.376 84.4289C195.765 79.8386 197.182 75.3946 199.521 71.4262C204.484 63.2649 213.184 57.6046 222.761 56.8687C225.58 56.6321 228.419 56.8404 231.174 57.4859C233.591 58.0702 235.815 58.8757 237.547 60.7136C238.777 62.0182 240.74 60.05 239.513 58.7483C237.809 57.0304 235.675 55.8023 233.334 55.1929C230.699 54.4065 227.964 54.0047 225.215 54C219.773 53.9844 214.417 55.3481 209.646 57.9637C205.171 60.4625 201.316 63.9369 198.368 68.129C195.485 72.237 193.616 76.9686 192.912 81.9373C192.05 87.7729 192.162 93.7109 193.242 99.5099C193.343 99.8635 193.579 100.163 193.899 100.345C194.218 100.526 194.597 100.575 194.952 100.48C195.303 100.376 195.6 100.14 195.781 99.821C195.962 99.5024 196.013 99.1262 195.923 98.7711V98.7699Z" fill="#211715"/>
<path d="M224.647 82.6298C220.86 82.8122 217.035 83.0658 213.282 83.609C211.081 83.9269 208.691 84.7827 207.239 86.5349C206.19 87.8002 205.888 89.2021 205.338 90.7042C204.905 91.8878 203.775 92.5977 202.863 93.395C200.217 95.7066 199.53 98.9169 199.364 102.283C199.277 104.071 202.056 104.067 202.144 102.283C202.266 99.7896 202.648 97.3436 204.58 95.5816C205.557 94.6904 206.646 93.9405 207.385 92.8183C208.149 91.6602 208.18 90.2056 208.864 89.0214C209.878 87.2646 211.957 86.6143 213.853 86.3137C213.928 86.3022 214.003 86.2917 214.079 86.2807C214.291 86.25 213.853 86.3097 214.079 86.2807C214.282 86.2545 214.486 86.2296 214.689 86.206C215.152 86.152 215.615 86.1024 216.079 86.0572C217.067 85.9588 218.056 85.8731 219.045 85.7926C220.91 85.6415 222.778 85.4996 224.648 85.4093C226.428 85.3236 226.438 82.5435 224.647 82.6298Z" fill="#211715"/>
<path d="M224.392 80.2024C225.294 80.1047 226.202 80.0812 227.108 80.1323C227.204 80.1398 227.3 80.1485 227.398 80.1584C227.659 80.1844 227.077 80.1005 227.531 80.1752C227.725 80.2076 227.918 80.2441 228.11 80.2875C228.569 80.3915 229.019 80.5287 229.458 80.6981C229.331 80.6488 229.522 80.7241 229.549 80.7363C229.641 80.7783 229.732 80.8224 229.823 80.8683C230.024 80.9696 230.221 81.0808 230.413 81.1984C230.606 81.3159 230.783 81.4381 230.963 81.5649C231.009 81.5962 231.137 81.6963 231.021 81.606C231.094 81.6639 231.166 81.7218 231.236 81.7797C231.532 82.0291 231.809 82.3001 232.065 82.5904C232.116 82.6483 232.163 82.7103 232.215 82.7676C232.142 82.6871 232.113 82.6217 232.197 82.7468C232.288 82.8811 232.377 83.0137 232.457 83.1521C232.549 83.311 232.671 83.4503 232.816 83.562C232.962 83.6736 233.128 83.7553 233.305 83.8025C233.482 83.8496 233.667 83.8612 233.848 83.8367C234.03 83.8121 234.205 83.7518 234.363 83.6593C234.522 83.5668 234.66 83.4439 234.771 83.2976C234.881 83.1514 234.962 82.9847 235.008 82.8072C235.054 82.6297 235.064 82.4448 235.038 82.2633C235.012 82.0818 234.951 81.9072 234.857 81.7496C233.87 80.1562 232.404 78.9163 230.669 78.2081C228.676 77.4208 226.517 77.1486 224.392 77.4165C224.023 77.4165 223.67 77.5629 223.409 77.8236C223.148 78.0842 223.002 78.4377 223.002 78.8063C223.002 79.1749 223.148 79.5283 223.409 79.789C223.67 80.0496 224.023 80.196 224.392 80.196V80.2024Z" fill="#211715"/>
<path d="M268.069 180.16C267.375 185.618 266.681 191.077 265.988 196.536C265.836 197.738 265.685 198.941 265.535 200.145C265.537 200.513 265.684 200.865 265.944 201.126C266.204 201.386 266.557 201.533 266.925 201.535C267.291 201.526 267.639 201.377 267.898 201.118C268.157 200.859 268.306 200.511 268.314 200.145C269.003 194.576 269.721 189.01 270.43 183.443L270.849 180.16C270.847 179.792 270.7 179.44 270.44 179.179C270.18 178.919 269.827 178.772 269.459 178.77C269.093 178.779 268.745 178.928 268.486 179.187C268.228 179.446 268.078 179.794 268.069 180.16Z" fill="#211715"/>
<path d="M188.008 195.479C187.139 188.517 186.213 181.561 185.302 174.604C185.186 173.74 185.07 172.876 184.968 172.011C184.957 171.646 184.807 171.299 184.549 171.04C184.291 170.782 183.944 170.632 183.579 170.621C183.211 170.623 182.858 170.771 182.598 171.031C182.338 171.291 182.191 171.643 182.189 172.011C182.884 177.82 183.708 183.615 184.456 189.417C184.717 191.438 184.975 193.458 185.228 195.479C185.239 195.844 185.389 196.191 185.648 196.449C185.906 196.708 186.253 196.858 186.618 196.869C186.986 196.867 187.338 196.72 187.599 196.46C187.859 196.199 188.006 195.847 188.008 195.479Z" fill="#211715"/>
<path d="M185.701 242.694H263.775C265.564 242.694 265.567 239.915 263.775 239.915H185.701C183.913 239.915 183.909 242.694 185.701 242.694Z" fill="#211715"/>
<path d="M256.469 237.86C259.638 241.246 263.905 243.397 268.511 243.931C270.67 244.147 272.85 243.914 274.914 243.245C276.978 242.577 278.881 241.488 280.502 240.047C287.367 233.851 287.661 223.761 287.722 215.184C287.726 206.177 286.981 197.186 285.493 188.303C284.718 183.474 283.852 178.632 282.83 173.851C281.875 169.097 280.335 164.48 278.244 160.105C276.247 156.197 273.214 152.913 269.475 150.615C265.53 148.102 261.046 146.561 256.576 145.276C255.399 144.937 254.216 144.614 253.033 144.291C251.305 143.819 250.568 146.5 252.294 146.971C260.154 149.118 269.164 151.546 274.128 158.592C276.698 162.24 278.124 166.762 279.285 171.028C279.893 173.261 280.334 175.518 280.751 177.793C281.182 180.136 281.674 182.467 282.094 184.814C283.663 193.237 284.599 201.765 284.893 210.328C285.048 214.651 284.959 218.979 284.625 223.291C284.274 227.358 283.409 231.496 281.171 234.972C280.224 236.521 278.965 237.856 277.473 238.892C275.982 239.928 274.292 240.643 272.51 240.991C268.225 241.801 263.981 240.405 260.562 237.816C259.804 237.232 259.092 236.591 258.433 235.898C257.187 234.611 255.223 236.577 256.467 237.864L256.469 237.86Z" fill="#211715"/>
<path d="M199.73 144.288C194.477 145.912 189.395 148.044 184.554 150.651C182.075 151.929 179.748 153.483 177.617 155.284C175.647 157.067 173.976 159.155 172.668 161.467C170.126 165.935 168.813 170.899 167.741 175.886C166.774 180.379 166.046 184.925 165.34 189.466C163.813 199.148 162.806 208.904 162.322 218.694C162.072 224.069 162.663 230.17 165.565 234.841C168.277 239.21 172.84 242.694 177.982 243.5C186.233 244.794 192.783 239.003 198.807 234.242L199.485 233.705C199.744 233.444 199.889 233.091 199.889 232.723C199.889 232.355 199.744 232.002 199.485 231.74C199.22 231.488 198.869 231.347 198.503 231.347C198.137 231.347 197.785 231.488 197.52 231.74L192.374 235.808C191.948 236.144 191.505 236.424 190.871 236.854C189.829 237.564 188.762 238.244 187.655 238.853C185.788 239.958 183.709 240.656 181.554 240.9C176.755 241.282 172.378 238.883 169.323 235.307C165.995 231.41 165.108 225.98 165.059 221C165.032 218.212 165.296 215.417 165.5 212.638C165.68 210.182 165.886 207.729 166.118 205.277C166.523 201.058 167.034 196.851 167.651 192.657C168.307 188.201 169.016 183.747 169.869 179.326C170.722 174.904 171.664 170.435 173.405 166.265C175.35 161.603 178.359 157.667 182.67 154.982C187.105 152.233 191.823 149.968 196.741 148.225C197.976 147.784 199.22 147.368 200.469 146.965C202.165 146.419 201.44 143.735 199.73 144.286V144.288Z" fill="#211715"/>
<path d="M252.532 113.973C252.32 115.135 251.961 116.266 251.464 117.338C251.291 117.757 251.107 118.172 250.943 118.596C250.904 118.699 250.866 118.804 250.827 118.908C250.698 119.274 250.898 118.769 250.806 118.966C250.26 120.139 249.644 121.278 248.961 122.377C247.03 125.631 244.562 128.534 241.66 130.962C240.112 132.264 238.289 133.2 236.329 133.699C234.587 134.104 235.324 136.782 237.068 136.379C241.218 135.42 244.671 132.384 247.379 129.235C249.689 126.63 251.622 123.713 253.122 120.571C254.169 118.49 254.907 116.267 255.313 113.973C255.311 113.604 255.164 113.252 254.904 112.992C254.644 112.731 254.291 112.584 253.923 112.583C253.557 112.592 253.209 112.741 252.95 113C252.692 113.259 252.542 113.607 252.533 113.973H252.532Z" fill="#211715"/>
<path d="M198.514 114.234C200.462 122.618 205.713 130.75 213.295 135.068C215.342 136.258 217.592 137.058 219.93 137.429C220.285 137.515 220.66 137.463 220.977 137.282C221.295 137.102 221.532 136.807 221.64 136.458C221.735 136.103 221.687 135.725 221.505 135.405C221.323 135.085 221.023 134.849 220.669 134.749C212.501 133.533 206.177 126.295 203.016 119.085C202.238 117.281 201.628 115.41 201.195 113.494C200.789 111.752 198.109 112.489 198.514 114.233V114.234Z" fill="#211715"/>
<path d="M200.843 98.7572C199.943 97.9533 198.824 97.4359 197.629 97.2709C196.434 97.1058 195.216 97.3007 194.132 97.8307C193.362 98.2532 192.696 98.8421 192.182 99.5546C191.668 100.267 191.32 101.085 191.162 101.95C190.734 103.987 190.722 106.091 191.128 108.133C191.534 110.175 192.35 112.114 193.526 113.833C195.197 116.275 197.579 118.039 200.657 117.619C201.012 117.519 201.312 117.283 201.494 116.963C201.675 116.643 201.724 116.264 201.628 115.909C201.521 115.559 201.285 115.263 200.967 115.082C200.649 114.902 200.273 114.85 199.918 114.938C197.764 115.233 196.101 112.915 195.225 111.27C194.347 109.672 193.806 107.91 193.638 106.094C193.547 105.09 193.587 104.077 193.758 103.083C193.836 102.633 193.956 102.191 194.119 101.764C194.2 101.574 194.295 101.391 194.403 101.216C194.435 101.164 194.693 100.802 194.5 101.049C194.703 100.777 194.958 100.548 195.251 100.375C195.543 100.203 195.867 100.09 196.204 100.044C196.672 99.9438 197.156 99.953 197.62 100.071C198.084 100.188 198.514 100.411 198.877 100.722C200.201 101.92 202.173 99.9605 200.843 98.7572Z" fill="#211715"/>
<path d="M255.029 100.722C255.392 100.411 255.823 100.188 256.286 100.071C256.75 99.9529 257.234 99.9438 257.702 100.044C258.039 100.091 258.363 100.204 258.656 100.376C258.949 100.549 259.205 100.777 259.41 101.049C259.213 100.802 259.474 101.165 259.505 101.216C259.614 101.391 259.71 101.574 259.79 101.764C259.952 102.191 260.072 102.632 260.149 103.082C260.32 104.076 260.36 105.089 260.268 106.093C260.101 107.909 259.562 109.671 258.684 111.269C257.809 112.915 256.146 115.231 253.994 114.937C253.639 114.852 253.265 114.904 252.947 115.085C252.63 115.265 252.393 115.559 252.284 115.908C252.189 116.263 252.237 116.642 252.419 116.962C252.6 117.282 252.901 117.517 253.255 117.618C258.28 118.304 261.202 113.363 262.504 109.221C263.125 107.12 263.262 104.906 262.903 102.745C262.625 100.947 261.879 99.2192 260.347 98.1589C259.236 97.4473 257.922 97.1202 256.607 97.2279C255.293 97.3355 254.049 97.872 253.069 98.7548C251.737 99.9575 253.71 101.918 255.034 100.72L255.029 100.722Z" fill="#211715"/>
<path d="M221.909 124.151C223.555 125.002 225.388 125.426 227.241 125.385C229.161 125.467 231.054 124.908 232.622 123.797C232.881 123.536 233.027 123.183 233.027 122.815C233.027 122.447 232.881 122.094 232.622 121.832C232.358 121.58 232.006 121.439 231.64 121.439C231.274 121.439 230.922 121.58 230.657 121.832C231.079 121.503 230.753 121.754 230.644 121.823C230.535 121.893 230.427 121.955 230.314 122.014C230.256 122.045 230.199 122.072 230.141 122.102C229.915 122.218 230.195 122.072 230.199 122.083C230.051 122.149 229.899 122.204 229.744 122.249C229.328 122.38 228.902 122.477 228.47 122.539C228.676 122.508 228.434 122.539 228.35 122.549C228.226 122.561 228.101 122.571 227.975 122.58C227.674 122.599 227.373 122.607 227.071 122.605C226.801 122.605 226.531 122.594 226.26 122.576C226.137 122.567 226.013 122.558 225.89 122.545C225.875 122.545 225.426 122.481 225.712 122.526C225.31 122.464 224.914 122.376 224.524 122.262C224.357 122.212 224.195 122.152 224.03 122.096C223.676 121.975 224.236 122.203 223.915 122.052C223.711 121.955 223.509 121.855 223.311 121.75C222.991 121.572 222.614 121.524 222.26 121.617C221.906 121.71 221.601 121.936 221.41 122.248C221.227 122.568 221.178 122.945 221.271 123.301C221.364 123.656 221.593 123.961 221.908 124.15L221.909 124.151Z" fill="#211715"/>
<path d="M226.532 111.593C226.777 112.479 226.974 113.378 227.12 114.285L227.071 113.916C227.088 114.039 227.092 114.164 227.081 114.287L227.131 113.918C227.122 113.975 227.109 114.031 227.09 114.085L227.23 113.753C227.214 113.791 227.194 113.827 227.172 113.861L227.39 113.579C227.363 113.611 227.334 113.64 227.301 113.666L227.582 113.449C227.514 113.491 227.443 113.529 227.369 113.562L227.701 113.422C227.586 113.471 227.465 113.506 227.342 113.527L227.711 113.477C227.599 113.49 227.486 113.49 227.374 113.477L227.743 113.527C227.616 113.509 227.491 113.478 227.364 113.461C227.185 113.403 226.994 113.394 226.81 113.436C226.626 113.444 226.448 113.501 226.293 113.601C226.135 113.693 225.997 113.815 225.887 113.96C225.776 114.106 225.696 114.272 225.65 114.448C225.603 114.625 225.592 114.809 225.617 114.99C225.642 115.171 225.702 115.345 225.794 115.502C225.882 115.659 226.002 115.796 226.144 115.906C226.287 116.015 226.451 116.095 226.625 116.139C226.915 116.178 227.197 116.252 227.494 116.265C227.939 116.268 228.378 116.163 228.773 115.96C229.024 115.847 229.246 115.679 229.423 115.468C229.6 115.258 229.728 115.01 229.798 114.744C229.888 114.311 229.884 113.864 229.784 113.433C229.638 112.564 229.437 111.705 229.215 110.855C229.166 110.679 229.083 110.514 228.971 110.37C228.859 110.226 228.72 110.105 228.561 110.015C228.402 109.925 228.227 109.867 228.046 109.845C227.865 109.822 227.681 109.836 227.505 109.884C227.329 109.933 227.164 110.015 227.02 110.127C226.876 110.24 226.756 110.379 226.666 110.538C226.575 110.697 226.517 110.872 226.495 111.053C226.472 111.234 226.486 111.418 226.534 111.594L226.532 111.593Z" fill="#211715"/>
<path d="M212.31 103.968C211.862 105.425 212.154 108.774 214.916 109.064C218.564 109.042 218.759 104.99 217.53 103.084C216.523 101.523 213.567 100.874 212.31 103.968Z" fill="#211715"/>
<path d="M241.596 103.968C242.045 105.425 241.752 108.774 238.99 109.064C235.342 109.042 235.148 104.99 236.376 103.084C237.383 101.523 240.34 100.874 241.596 103.968Z" fill="#211715"/>
<path d="M208.248 213.573L208.686 212.987C209.228 212.263 210.567 210.347 210.835 210.101C211.188 209.81 211.581 209.572 212.003 209.395C213.663 208.782 215.741 209.082 217.098 208.253C219.503 206.783 219.588 205.535 221.359 203.794C222.876 195.676 225.238 183.022 226.374 176.959C226.265 176.959 226.155 176.959 226.047 176.966C225.172 177.049 224.313 177.256 223.496 177.583C220.845 178.521 218.268 179.656 215.785 180.977C215.761 180.965 215.737 180.947 215.713 180.935C215.623 180.88 215.53 180.83 215.434 180.786C215.408 180.769 215.38 180.755 215.35 180.745C215.269 180.708 215.185 180.676 215.1 180.65C215.078 180.637 215.054 180.627 215.029 180.62C214.984 180.603 214.938 180.589 214.892 180.578C214.834 180.56 214.776 180.543 214.718 180.531C214.7 180.525 214.682 180.525 214.665 180.518C214.607 180.507 214.545 180.495 214.491 180.483C214.42 180.471 214.354 180.465 214.289 180.459C214.248 180.452 214.206 180.448 214.164 180.447C214.083 180.437 214.001 180.433 213.919 180.435C213.782 180.434 213.645 180.442 213.509 180.459C212.849 180.548 212.227 180.823 211.717 181.251C211.056 181.76 210.234 182.016 209.4 181.971C208.73 181.968 208.075 182.172 207.525 182.555C206.994 182.945 206.358 183.167 205.7 183.194C205.626 183.194 205.553 183.2 205.48 183.212C205.244 183.24 205.011 183.29 204.785 183.36C204.483 183.457 204.192 183.584 203.916 183.741C203.288 184.106 202.731 184.583 202.273 185.147C201.498 186.171 200.856 187.289 200.362 188.475C197.672 194.24 196.514 196.124 193.711 201.934C194.695 204.414 196.049 206.732 197.725 208.808C198.846 210.318 200.226 211.618 201.8 212.646C203.271 213.521 206.125 213.768 208.17 213.685L208.248 213.573Z" fill="white"/>
<path d="M217.202 181.806C218.989 180.885 220.825 180.065 222.703 179.349C223.624 178.963 224.574 178.653 225.545 178.422C225.875 178.329 226.221 178.303 226.561 178.347C226.902 178.39 227.229 178.503 227.525 178.677C227.791 178.928 228.142 179.067 228.508 179.067C228.873 179.067 229.224 178.928 229.49 178.677C229.749 178.415 229.894 178.062 229.894 177.694C229.894 177.327 229.749 176.974 229.49 176.712C227.384 175.032 224.931 175.58 222.595 176.433C220.27 177.283 217.999 178.275 215.796 179.404C215.478 179.59 215.247 179.895 215.153 180.252C215.06 180.609 215.112 180.988 215.298 181.306C215.484 181.624 215.789 181.856 216.145 181.949C216.502 182.043 216.881 181.991 217.199 181.805L217.202 181.806Z" fill="#211715"/>
<path d="M209.888 213.688C210.197 213.273 210.497 212.851 210.801 212.431C210.973 212.192 211.147 211.954 211.322 211.716C211.399 211.61 211.478 211.504 211.558 211.398C211.645 211.282 211.771 211.14 211.606 211.333C211.667 211.262 211.936 210.97 211.709 211.166C211.918 211.003 212.141 210.859 212.375 210.735C213.052 210.491 213.762 210.35 214.481 210.316C215.263 210.261 216.037 210.123 216.789 209.904C217.6 209.6 218.352 209.157 219.011 208.594C219.51 208.191 219.962 207.733 220.357 207.228C220.581 206.944 220.796 206.655 221.008 206.364C221.187 206.119 221.359 205.881 221.483 205.727C221.733 205.461 221.873 205.11 221.873 204.745C221.873 204.379 221.733 204.028 221.483 203.762C221.221 203.504 220.868 203.359 220.5 203.359C220.133 203.359 219.78 203.504 219.518 203.762C218.659 204.841 218.186 205.749 217.1 206.586C216.581 207.017 215.958 207.305 215.293 207.421C214.547 207.566 213.756 207.61 212.989 207.729C211.68 207.859 210.465 208.471 209.581 209.445C208.851 210.368 208.191 211.343 207.49 212.287C207.306 212.606 207.255 212.984 207.349 213.34C207.442 213.696 207.672 214.001 207.988 214.188C208.308 214.366 208.685 214.413 209.039 214.32C209.393 214.228 209.698 214.002 209.89 213.69L209.888 213.688Z" fill="#211715"/>
<path d="M217.558 180.681C216.83 179.877 215.855 179.337 214.788 179.147C213.72 178.956 212.619 179.125 211.658 179.627C211.244 179.925 210.813 180.198 210.368 180.446C209.784 180.577 209.189 180.649 208.591 180.66C207.444 180.85 206.622 181.711 205.477 181.822C202.624 182.099 200.777 184.444 199.598 186.845C198.56 188.959 197.583 191.102 196.523 193.206C195.413 195.409 194.281 197.601 193.195 199.816C193.018 200.137 192.971 200.513 193.064 200.867C193.157 201.221 193.382 201.526 193.693 201.718C194.013 201.9 194.391 201.95 194.746 201.857C195.102 201.764 195.407 201.535 195.595 201.219C197.349 197.644 199.213 194.124 200.922 190.526C201.843 188.587 202.672 185.934 204.718 184.886C205.103 184.699 205.52 184.591 205.946 184.567C206.639 184.506 207.31 184.296 207.915 183.953C208.272 183.685 208.678 183.488 209.11 183.374C209.669 183.292 210.222 183.336 210.782 183.21C211.374 183.074 211.931 182.816 212.417 182.453C212.784 182.129 213.232 181.914 213.714 181.832C214.069 181.806 214.426 181.867 214.753 182.009C215.08 182.15 215.368 182.369 215.592 182.647C216.79 183.978 218.751 182.01 217.557 180.681H217.558Z" fill="#211715"/>
<path d="M218.753 189.057C219.418 190.417 219.923 191.85 220.258 193.327C220.434 194.021 220.545 194.73 220.587 195.445C220.524 195.998 220.392 196.542 220.195 197.062C220.016 197.687 219.817 198.31 219.576 198.915C219.448 199.327 219.24 199.709 218.965 200.04C218.342 200.6 216.84 200.484 216.596 199.668C216.085 197.958 213.401 198.686 213.916 200.407C214.559 202.557 217.051 203.555 219.115 203.007C221.084 202.486 221.862 200.815 222.48 199.049C222.747 198.29 222.971 197.516 223.153 196.733C223.347 195.743 223.347 194.724 223.153 193.734C222.794 191.618 222.119 189.569 221.15 187.654C220.962 187.338 220.657 187.109 220.301 187.016C219.946 186.923 219.568 186.973 219.249 187.156C218.936 187.347 218.71 187.652 218.617 188.006C218.524 188.36 218.572 188.737 218.75 189.057L218.753 189.057Z" fill="#211715"/>
<path d="M212.791 190.409C213.139 191.24 213.538 192.038 213.93 192.848C214.216 193.391 214.416 193.974 214.522 194.578C214.517 195.32 214.415 196.059 214.218 196.774C214.141 197.135 214.059 197.494 213.972 197.852C213.93 198.02 213.888 198.187 213.834 198.351C213.812 198.419 213.789 198.487 213.763 198.554C213.815 198.439 213.807 198.454 213.738 198.602C213.676 198.718 213.607 198.831 213.544 198.946C213.45 199.079 213.449 199.087 213.539 198.968C213.487 199.03 213.434 199.09 213.376 199.147C213.293 199.231 213.099 199.347 213.298 199.228C213.235 199.27 213.169 199.309 213.101 199.344C213.262 199.285 213.268 199.283 213.12 199.336C213.052 199.353 212.714 199.401 213.036 199.378C212.966 199.383 212.491 199.343 212.787 199.395C212.526 199.361 212.276 199.27 212.054 199.129C211.996 199.096 211.734 198.873 211.949 199.072C211.868 198.997 211.65 198.67 211.811 198.956C211.76 198.865 211.705 198.778 211.66 198.683C211.815 199.012 211.66 198.58 211.639 198.501C211.568 198.223 211.626 198.733 211.632 198.402C211.632 198.252 211.622 198.1 211.626 197.949C211.634 197.673 211.684 197.162 211.7 197.034C211.785 196.679 211.732 196.305 211.552 195.987C211.372 195.67 211.077 195.433 210.729 195.324C210.374 195.229 209.995 195.277 209.675 195.459C209.355 195.641 209.12 195.941 209.019 196.295C208.835 197.644 208.618 199.204 209.442 200.402C209.878 201.01 210.469 201.491 211.155 201.793C211.84 202.095 212.594 202.208 213.338 202.12C214.89 201.907 215.92 200.693 216.444 199.293C216.664 198.632 216.833 197.954 216.95 197.267C217.163 196.439 217.283 195.59 217.309 194.736C217.259 192.863 216.167 191.341 215.472 189.671C215.364 189.322 215.127 189.028 214.809 188.847C214.491 188.667 214.117 188.615 213.762 188.701C213.408 188.8 213.107 189.036 212.925 189.356C212.744 189.676 212.696 190.055 212.791 190.41V190.409Z" fill="#211715"/>
<path d="M191.95 200.887C192.488 202.945 193.36 204.901 194.53 206.678C195.639 208.501 196.951 210.193 198.439 211.723C199.811 213.227 201.609 214.275 203.593 214.729C205.422 215.095 207.296 215.188 209.152 215.004C209.517 214.994 209.865 214.845 210.124 214.586C210.382 214.328 210.532 213.98 210.542 213.614C210.539 213.247 210.392 212.895 210.132 212.634C209.872 212.374 209.52 212.227 209.152 212.225C207.612 212.395 206.055 212.348 204.528 212.086C202.856 211.758 201.344 210.876 200.235 209.582C198.958 208.239 197.829 206.762 196.87 205.176C195.855 203.632 195.099 201.934 194.631 200.147C194.234 198.403 191.554 199.141 191.951 200.886L191.95 200.887Z" fill="#211715"/>
<path d="M235.039 189.299C237.051 190.476 245.025 195.236 250.273 198.418L251.141 193.774C253.98 195.136 256.615 196.888 258.97 198.979C259.976 200.003 260.728 201.249 261.163 202.618C262.072 205.275 262.877 209.103 262.366 212.565L262.308 212.966C260.424 216.972 257.68 220.515 254.273 223.343C251.225 223.394 248.178 223.164 245.171 222.656C243.053 222.172 241.062 221.243 239.331 219.93C235.139 217.09 231.432 213.592 228.354 209.571C228.036 209.131 227.838 208.615 227.779 208.075C227.734 207.809 227.751 207.537 227.831 207.279C227.91 207.021 228.048 206.786 228.235 206.591L229.373 205.533C228.93 205.185 228.621 204.929 228.486 204.802C227.886 204.294 227.413 203.652 227.107 202.927C226.957 202.459 226.947 201.957 227.08 201.483C227.109 201.237 227.188 201 227.311 200.785C227.435 200.571 227.602 200.384 227.8 200.236C227.999 200.088 228.226 199.982 228.467 199.925C228.708 199.868 228.958 199.861 229.202 199.905L230.238 200.062C229.073 199.206 228.212 198.566 227.908 198.322C227.77 198.212 227.63 198.094 227.488 197.968C226.65 197.264 225.954 196.407 225.435 195.443C225.218 194.965 225.139 194.436 225.207 193.915C225.274 193.395 225.487 192.904 225.819 192.497C226.619 191.435 228.014 191.081 229.861 191.657C229.759 191.236 229.771 190.796 229.896 190.381C230.021 189.967 230.254 189.593 230.571 189.299C231.726 188.025 233.851 188.612 234.756 189.134L235.039 189.299Z" fill="white"/>
<path d="M263.706 212.935C264.015 210.559 263.927 208.149 263.448 205.802C263.116 203.759 262.449 201.785 261.474 199.959C260.44 198.169 258.762 196.906 257.114 195.712C255.418 194.523 253.636 193.463 251.781 192.543C250.193 191.724 248.786 194.122 250.378 194.942C252.043 195.773 253.652 196.711 255.196 197.748C256.55 198.684 258.085 199.736 258.954 201.159C259.815 202.721 260.404 204.418 260.695 206.178C261.144 208.151 261.256 210.185 261.026 212.196C260.94 212.551 260.993 212.925 261.173 213.243C261.354 213.56 261.648 213.797 261.997 213.906C262.352 214.001 262.731 213.953 263.051 213.771C263.371 213.589 263.606 213.289 263.706 212.935Z" fill="#211715"/>
<path d="M227.966 168.44L219.968 211.227C219.665 212.848 220.734 214.407 222.355 214.71L243.453 218.654C245.074 218.957 246.634 217.889 246.937 216.268L254.935 173.481C255.238 171.861 254.169 170.301 252.548 169.998L231.45 166.054C229.829 165.751 228.269 166.819 227.966 168.44Z" fill="#ECECEC"/>
<path d="M221.985 216.05L237.016 218.86C239.015 219.233 241.012 219.632 243.014 219.981C244.087 220.21 245.206 220.035 246.159 219.49C247.111 218.945 247.829 218.069 248.175 217.027C248.275 216.672 248.352 216.31 248.407 215.945L251.022 201.954L254.649 182.551L255.901 175.849C256.207 174.211 256.692 172.555 255.901 170.96C254.724 168.595 252.024 168.492 249.755 168.068L240.322 166.303L232.555 164.851C231.502 164.559 230.387 164.579 229.346 164.909C228.642 165.184 228.02 165.634 227.538 166.217C227.057 166.799 226.732 167.495 226.595 168.238C225.81 172.273 225.084 176.32 224.329 180.36L220.651 200.038C219.978 203.638 219.239 207.232 218.631 210.844C218.401 211.978 218.623 213.157 219.25 214.131C219.876 215.104 220.857 215.795 221.985 216.055C223.728 216.442 224.475 213.763 222.724 213.375C220.877 212.965 221.351 211.372 221.597 210.061L222.721 204.044L226.203 185.417L228.997 170.471C229.216 169.299 229.27 167.455 230.85 167.398C231.351 167.422 231.848 167.501 232.333 167.632L235.712 168.264L251.833 171.275C252.797 171.456 253.709 171.965 253.597 173.114C253.574 173.35 253.508 173.591 253.464 173.824L252.522 178.867L249.145 196.912L246.119 213.1C245.945 214.031 245.797 214.972 245.597 215.898C245.12 218.093 242.554 217.076 241.067 216.798L224.047 213.617L222.725 213.37C222.369 213.281 221.994 213.333 221.676 213.514C221.358 213.695 221.121 213.991 221.015 214.341C220.921 214.696 220.969 215.074 221.151 215.394C221.332 215.713 221.632 215.949 221.985 216.05Z" fill="#211715"/>
<path d="M252.416 200.556L252.452 199.745C247.354 196.623 236.329 190.04 234.755 189.133C233.849 188.612 231.725 188.022 230.57 189.298C230.255 189.591 230.022 189.962 229.897 190.374C229.771 190.786 229.757 191.224 229.856 191.643C229.614 191.58 229.471 191.545 229.471 191.545C227.814 191.135 226.56 191.511 225.818 192.497C225.485 192.903 225.273 193.394 225.205 193.915C225.138 194.435 225.217 194.965 225.434 195.442C226.05 196.562 226.892 197.543 227.907 198.321C228.212 198.565 229.072 199.206 230.237 200.062L229.201 199.904C228.957 199.861 228.707 199.868 228.466 199.925C228.225 199.982 227.998 200.087 227.799 200.235C227.6 200.383 227.434 200.57 227.31 200.785C227.186 200.999 227.108 201.237 227.079 201.483C226.946 201.956 226.956 202.458 227.106 202.927C227.412 203.651 227.884 204.294 228.485 204.802C228.617 204.927 228.928 205.182 229.369 205.53L228.233 206.59C228.046 206.784 227.908 207.02 227.829 207.277C227.75 207.534 227.732 207.807 227.776 208.072C227.838 208.613 228.035 209.129 228.35 209.573C231.431 213.593 235.139 217.091 239.332 219.932C241.063 221.244 243.055 222.172 245.173 222.654C247.246 222.929 249.346 222.949 251.424 222.716L252.416 200.556Z" fill="white"/>
<path d="M253.154 198.545C247.433 195.043 241.681 191.592 235.898 188.19C234.505 187.373 232.826 186.838 231.217 187.322C229.14 187.948 227.751 190.449 228.708 192.479C229.313 193.764 230.763 194.632 231.864 195.463C233.215 196.482 234.582 197.481 235.952 198.474C239.021 200.704 242.104 202.933 245.257 205.049C246.747 206.047 248.139 203.641 246.66 202.648C244.143 200.96 241.68 199.19 239.219 197.421C237.825 196.417 236.435 195.407 235.05 194.391C234.471 193.964 233.893 193.535 233.318 193.102C233.086 192.928 232.855 192.749 232.623 192.573C232.364 192.375 232.688 192.625 232.513 192.488C232.411 192.408 232.309 192.329 232.207 192.248C231.812 191.936 231.222 191.54 231.149 191.084C231.16 190.899 231.226 190.722 231.338 190.574C231.447 190.339 231.634 190.148 231.867 190.033C232.799 189.559 233.833 190.199 234.625 190.664C237.033 192.08 239.428 193.517 241.824 194.949C245.141 196.935 248.456 198.923 251.753 200.941C253.283 201.877 254.681 199.474 253.156 198.54L253.154 198.545Z" fill="#211715"/>
<path d="M229.84 190.205C228.266 189.849 226.627 189.929 225.341 190.998C224.692 191.545 224.219 192.27 223.979 193.083C223.74 193.896 223.745 194.762 223.993 195.573C224.684 197.646 226.572 199.069 228.261 200.321C231.439 202.684 234.654 204.997 237.868 207.312C239.222 208.287 240.572 209.267 241.942 210.22C242.261 210.403 242.64 210.453 242.995 210.36C243.351 210.267 243.656 210.037 243.844 209.721C244.023 209.402 244.07 209.025 243.977 208.671C243.884 208.316 243.658 208.012 243.345 207.82C240.798 206.05 238.298 204.215 235.788 202.395C234.303 201.319 232.82 200.24 231.34 199.157C230.78 198.747 230.22 198.335 229.661 197.921C229.471 197.78 229.281 197.639 229.092 197.496C229.022 197.444 228.954 197.39 228.883 197.338C228.655 197.168 229.169 197.582 228.93 197.374C228.088 196.641 226.467 195.463 226.566 194.186C226.671 192.826 228.04 192.646 229.098 192.885C230.84 193.28 231.584 190.6 229.837 190.205H229.84Z" fill="#211715"/>
<path d="M229.201 198.515C226.989 198.268 225.537 200.273 225.598 202.326C225.648 203.979 226.88 205.31 228.105 206.289C230.479 208.191 232.944 209.988 235.383 211.807C236.649 212.752 237.916 213.695 239.182 214.639C239.501 214.823 239.879 214.873 240.235 214.78C240.591 214.687 240.896 214.457 241.084 214.14C241.261 213.82 241.308 213.444 241.216 213.09C241.123 212.735 240.897 212.431 240.585 212.239C238.48 210.665 236.368 209.1 234.266 207.523C233.172 206.702 232.08 205.876 230.992 205.045C230.919 204.987 230.702 204.82 230.893 204.969L230.589 204.733C230.415 204.597 230.241 204.461 230.068 204.324C229.863 204.16 229.658 203.997 229.465 203.819C228.905 203.303 228.249 202.674 228.417 201.85C228.446 201.712 228.488 201.576 228.542 201.445C228.41 201.76 228.732 201.171 228.572 201.404C228.645 201.297 228.627 201.304 228.695 201.284C228.862 201.264 229.032 201.267 229.198 201.295C229.566 201.292 229.919 201.145 230.179 200.885C230.439 200.625 230.586 200.273 230.588 199.905C230.58 199.539 230.431 199.19 230.172 198.931C229.913 198.673 229.564 198.523 229.198 198.515H229.201Z" fill="#211715"/>
<path d="M227.25 205.608C226.855 206.047 226.58 206.581 226.453 207.158C226.326 207.734 226.351 208.334 226.524 208.899C226.835 210.086 227.694 211.007 228.456 211.931C229.882 213.661 231.434 215.282 233.1 216.783C234.817 218.323 236.631 219.753 238.53 221.062C240.437 222.384 242.553 223.61 244.87 224.006C247.039 224.351 249.246 224.384 251.424 224.106C251.789 224.095 252.136 223.945 252.395 223.687C252.653 223.429 252.803 223.081 252.814 222.716C252.811 222.348 252.664 221.996 252.404 221.736C252.144 221.476 251.792 221.329 251.424 221.326C249.39 221.611 247.325 221.591 245.296 221.269C242.761 220.742 240.585 219.18 238.54 217.667C236.555 216.197 234.691 214.571 232.965 212.803C232.077 211.895 231.229 210.949 230.421 209.966C230.11 209.589 228.678 208.159 229.215 207.574C230.424 206.258 228.462 204.288 227.25 205.605V205.608Z" fill="#211715"/>
<path d="M262.014 209.863C261.063 212.789 259.584 215.515 257.65 217.907C255.791 220.288 253.561 222.523 250.851 223.914C249.259 224.731 250.664 227.13 252.254 226.314C255.275 224.763 257.772 222.25 259.834 219.592C261.988 216.916 263.635 213.87 264.694 210.602C265.215 208.887 262.531 208.153 262.014 209.863Z" fill="#211715"/>
<path d="M237.163 171.761C235.986 171.54 234.808 171.32 233.631 171.098C233.269 171.01 232.887 171.06 232.56 171.238C232.242 171.424 232.01 171.729 231.917 172.086C231.823 172.442 231.875 172.821 232.061 173.139C232.151 173.295 232.271 173.431 232.413 173.541C232.556 173.65 232.719 173.73 232.892 173.776C234.07 173.997 235.248 174.218 236.425 174.439C236.787 174.528 237.169 174.478 237.496 174.299C237.653 174.207 237.791 174.084 237.902 173.939C238.012 173.794 238.093 173.628 238.139 173.451C238.185 173.275 238.196 173.091 238.172 172.91C238.147 172.729 238.087 172.555 237.994 172.397C237.905 172.242 237.785 172.105 237.642 171.996C237.5 171.887 237.337 171.807 237.163 171.761Z" fill="#211715"/>
</g>
<defs>
<linearGradient id="paint0_linear_38_122" x1="209.562" y1="28.5743" x2="327.062" y2="351.574" gradientUnits="userSpaceOnUse">
<stop stop-color="#1400FC"/>
<stop offset="1" stop-color="#820EF6" stop-opacity="0"/>
<stop offset="1" stop-color="#7F00FF" stop-opacity="0"/>
</linearGradient>
<clipPath id="clip0_38_122">
<rect width="190" height="190" fill="white" transform="translate(130 54)"/>
</clipPath>
</defs>
</svg>
